<svg width="15" height="15" viewBox="0 0 15 15" fill="none" xmlns="http://www.w3.org/2000/svg">
<path d="M13.2143 0H1.78571C0.8 0 0 0.8 0 1.78571V13.2143C0 14.2 0.8 15 1.78571 15H13.2143C14.2 15 15 14.2 15 13.2143V1.78571C15 0.8 14.2 0 13.2143 0ZM11.7857 5.35714H11.0714C10.3071 5.35714 10 5.53571 10 6.07143V7.14286H11.7857L11.4286 8.92857H10V14.2857H8.21429V8.92857H6.78571V7.14286H8.21429V6.07143C8.21429 4.64286 8.92857 3.57143 10.3571 3.57143C11.3929 3.57143 11.7857 3.92857 11.7857 3.92857V5.35714Z" fill="white"/>
</svg>
