<svg width="15" height="15" viewBox="0 0 15 15" fill="none" xmlns="http://www.w3.org/2000/svg">
<path d="M4.37378 0C1.9619 0 0 1.96372 0 4.37622V10.6262C0 13.0381 1.96372 15 4.37622 15H10.6262C13.0381 15 15 13.0363 15 10.6238V4.37378C15 1.9619 13.0363 0 10.6238 0H4.37378ZM11.875 2.5C12.22 2.5 12.5 2.78 12.5 3.125C12.5 3.47 12.22 3.75 11.875 3.75C11.53 3.75 11.25 3.47 11.25 3.125C11.25 2.78 11.53 2.5 11.875 2.5ZM7.5 3.75C9.56812 3.75 11.25 5.43188 11.25 7.5C11.25 9.56812 9.56812 11.25 7.5 11.25C5.43188 11.25 3.75 9.56812 3.75 7.5C3.75 5.43188 5.43188 3.75 7.5 3.75ZM7.5 5C6.83696 5 6.20107 5.26339 5.73223 5.73223C5.26339 6.20107 5 6.83696 5 7.5C5 8.16304 5.26339 8.79893 5.73223 9.26777C6.20107 9.73661 6.83696 10 7.5 10C8.16304 10 8.79893 9.73661 9.26777 9.26777C9.73661 8.79893 10 8.16304 10 7.5C10 6.83696 9.73661 6.20107 9.26777 5.73223C8.79893 5.26339 8.16304 5 7.5 5Z" fill="white"/>
</svg>
