<svg width="15" height="15" viewBox="0 0 15 15" fill="none" xmlns="http://www.w3.org/2000/svg">
<path d="M13.2143 0H1.78571C0.8 0 0 0.8 0 1.78571V13.2143C0 14.2 0.8 15 1.78571 15H13.2143C14.2 15 15 14.2 15 13.2143V1.78571C15 0.8 14.2 0 13.2143 0ZM4.64286 5.71429V12.5H2.5V5.71429H4.64286ZM2.5 3.73929C2.5 3.23929 2.92857 2.85714 3.57143 2.85714C4.21429 2.85714 4.61786 3.23929 4.64286 3.73929C4.64286 4.23929 4.24286 4.64286 3.57143 4.64286C2.92857 4.64286 2.5 4.23929 2.5 3.73929ZM12.5 12.5H10.3571C10.3571 12.5 10.3571 9.19286 10.3571 8.92857C10.3571 8.21429 10 7.5 9.10714 7.48571H9.07857C8.21429 7.48571 7.85714 8.22143 7.85714 8.92857C7.85714 9.25357 7.85714 12.5 7.85714 12.5H5.71429V5.71429H7.85714V6.62857C7.85714 6.62857 8.54643 5.71429 9.93214 5.71429C11.35 5.71429 12.5 6.68929 12.5 8.66429V12.5Z" fill="white"/>
</svg>
