<svg width="15" height="15" viewBox="0 0 15 15" fill="none" xmlns="http://www.w3.org/2000/svg">
<path d="M2.5 0C1.11929 0 0 1.11929 0 2.5V12.5C0 13.8807 1.11929 15 2.5 15H12.5C13.8807 15 15 13.8807 15 12.5V2.5C15 1.11929 13.8807 0 12.5 0H2.5ZM3.24498 3.21429H6.0798L8.09291 6.07492L10.5357 3.21429H11.4286L8.49609 6.6476L12.1122 11.7857H9.27804L6.94196 8.4668L4.10714 11.7857H3.21429L6.53878 7.89411L3.24498 3.21429ZM4.61217 3.92857L9.65053 11.0714H10.745L5.70661 3.92857H4.61217Z" fill="white"/>
</svg>
