<svg xmlns="http://www.w3.org/2000/svg" version="1.1" xmlns:xlink="http://www.w3.org/1999/xlink" xmlns:svgjs="http://svgjs.dev/svgjs" width="2000" height="409" viewBox="0 0 2000 409"><g transform="matrix(1,0,0,1,-1.2121212121212466,1.2493535111137817)"><svg viewBox="0 0 396 81" data-background-color="#ffffff" preserveAspectRatio="xMidYMid meet" height="409" width="2000" xmlns="http://www.w3.org/2000/svg" xmlns:xlink="http://www.w3.org/1999/xlink"><g id="tight-bounds" transform="matrix(1,0,0,1,0.2400000000000091,-0.24742697897363541)"><svg viewBox="0 0 395.52 81.49460422797917" height="81.49460422797917" width="395.52"><g><svg viewBox="0 0 528.8314987623487 108.9626660976099" height="81.49460422797917" width="395.52"><g transform="matrix(1,0,0,1,133.31149876234875,33.85337199834759)"><svg viewBox="0 0 395.5199999999999 41.25592210091472" height="41.25592210091472" width="395.5199999999999"><g id="textblocktransform"><svg viewBox="0 0 395.5199999999999 41.25592210091472" height="41.25592210091472" width="395.5199999999999" id="textblock"><g><svg viewBox="0 0 395.5199999999999 41.25592210091472" height="41.25592210091472" width="395.5199999999999"><g transform="matrix(1,0,0,1,0,0)"><svg width="395.5199999999999" viewBox="3.45 -34.9 338.88 35.35" height="41.25592210091472" data-palette-color="#323346"><path d="M15.65-34.9Q21.15-34.9 25.33-32.75 29.5-30.6 31.78-26.63 34.05-22.65 34.05-17.4L34.05-17.4Q34.05-12.15 31.78-8.22 29.5-4.3 25.33-2.15 21.15 0 15.65 0L15.65 0 3.45 0 3.45-34.9 15.65-34.9ZM15.4-5.95Q20.9-5.95 23.9-8.95 26.9-11.95 26.9-17.4L26.9-17.4Q26.9-22.85 23.9-25.93 20.9-29 15.4-29L15.4-29 10.45-29 10.45-5.95 15.4-5.95ZM46.3-23.4Q47.65-25.6 49.82-26.85 52-28.1 54.8-28.1L54.8-28.1 54.8-20.75 52.95-20.75Q49.65-20.75 47.97-19.2 46.3-17.65 46.3-13.8L46.3-13.8 46.3 0 39.3 0 39.3-27.7 46.3-27.7 46.3-23.4ZM85.25-14.45Q85.25-12.95 85.05-11.75L85.05-11.75 64.8-11.75Q65.05-8.75 66.9-7.05 68.75-5.35 71.45-5.35L71.45-5.35Q75.35-5.35 77-8.7L77-8.7 84.55-8.7Q83.35-4.7 79.95-2.13 76.55 0.45 71.6 0.45L71.6 0.45Q67.6 0.45 64.42-1.33 61.25-3.1 59.47-6.35 57.7-9.6 57.7-13.85L57.7-13.85Q57.7-18.15 59.45-21.4 61.2-24.65 64.35-26.4 67.5-28.15 71.6-28.15L71.6-28.15Q75.55-28.15 78.67-26.45 81.8-24.75 83.52-21.63 85.25-18.5 85.25-14.45L85.25-14.45ZM64.85-16.45L78-16.45Q77.95-19.15 76.05-20.78 74.15-22.4 71.4-22.4L71.4-22.4Q68.8-22.4 67.02-20.83 65.25-19.25 64.85-16.45L64.85-16.45ZM88.54-13.95Q88.54-18.15 90.22-21.4 91.89-24.65 94.77-26.4 97.64-28.15 101.19-28.15L101.19-28.15Q104.29-28.15 106.62-26.9 108.94-25.65 110.34-23.75L110.34-23.75 110.34-27.7 117.39-27.7 117.39 0 110.34 0 110.34-4.05Q108.99-2.1 106.62-0.83 104.24 0.45 101.14 0.45L101.14 0.45Q97.64 0.45 94.77-1.35 91.89-3.15 90.22-6.43 88.54-9.7 88.54-13.95L88.54-13.95ZM110.34-13.85Q110.34-16.4 109.34-18.23 108.34-20.05 106.64-21.03 104.94-22 102.99-22L102.99-22Q101.04-22 99.39-21.05 97.74-20.1 96.72-18.28 95.69-16.45 95.69-13.95L95.69-13.95Q95.69-11.45 96.72-9.58 97.74-7.7 99.42-6.7 101.09-5.7 102.99-5.7L102.99-5.7Q104.94-5.7 106.64-6.68 108.34-7.65 109.34-9.47 110.34-11.3 110.34-13.85L110.34-13.85ZM158.64-28.1Q163.74-28.1 166.87-24.98 169.99-21.85 169.99-16.25L169.99-16.25 169.99 0 162.99 0 162.99-15.3Q162.99-18.55 161.34-20.28 159.69-22 156.84-22L156.84-22Q153.99-22 152.32-20.28 150.64-18.55 150.64-15.3L150.64-15.3 150.64 0 143.64 0 143.64-15.3Q143.64-18.55 141.99-20.28 140.34-22 137.49-22L137.49-22Q134.59-22 132.92-20.28 131.24-18.55 131.24-15.3L131.24-15.3 131.24 0 124.24 0 124.24-27.7 131.24-27.7 131.24-24.35Q132.59-26.1 134.72-27.1 136.84-28.1 139.39-28.1L139.39-28.1Q142.64-28.1 145.19-26.73 147.74-25.35 149.14-22.8L149.14-22.8Q150.49-25.2 153.07-26.65 155.64-28.1 158.64-28.1L158.64-28.1ZM210.49-34.9L217.49-34.9 217.49 0 210.49 0 210.49-14.85 195.54-14.85 195.54 0 188.54 0 188.54-34.9 195.54-34.9 195.54-20.55 210.49-20.55 210.49-34.9ZM236.68 0.45Q232.68 0.45 229.48-1.33 226.28-3.1 224.46-6.35 222.63-9.6 222.63-13.85L222.63-13.85Q222.63-18.1 224.51-21.35 226.38-24.6 229.63-26.38 232.88-28.15 236.88-28.15L236.88-28.15Q240.88-28.15 244.13-26.38 247.38-24.6 249.26-21.35 251.13-18.1 251.13-13.85L251.13-13.85Q251.13-9.6 249.21-6.35 247.28-3.1 244.01-1.33 240.73 0.45 236.68 0.45L236.68 0.45ZM236.68-5.65Q238.58-5.65 240.26-6.58 241.93-7.5 242.93-9.35 243.93-11.2 243.93-13.85L243.93-13.85Q243.93-17.8 241.86-19.93 239.78-22.05 236.78-22.05L236.78-22.05Q233.78-22.05 231.76-19.93 229.73-17.8 229.73-13.85L229.73-13.85Q229.73-9.9 231.71-7.78 233.68-5.65 236.68-5.65L236.68-5.65ZM275.38-27.7L282.43-27.7 282.43 0 275.38 0 275.38-3.5Q274.03-1.7 271.86-0.68 269.68 0.35 267.13 0.35L267.13 0.35Q263.88 0.35 261.38-1.03 258.88-2.4 257.46-5.08 256.03-7.75 256.03-11.45L256.03-11.45 256.03-27.7 263.03-27.7 263.03-12.45Q263.03-9.15 264.68-7.38 266.33-5.6 269.18-5.6L269.18-5.6Q272.08-5.6 273.73-7.38 275.38-9.15 275.38-12.45L275.38-12.45 275.38-27.7ZM299.93 0.45Q296.53 0.45 293.83-0.78 291.13-2 289.55-4.1 287.98-6.2 287.83-8.75L287.83-8.75 294.88-8.75Q295.08-7.15 296.45-6.1 297.83-5.05 299.88-5.05L299.88-5.05Q301.88-5.05 303-5.85 304.13-6.65 304.13-7.9L304.13-7.9Q304.13-9.25 302.75-9.93 301.38-10.6 298.38-11.4L298.38-11.4Q295.28-12.15 293.3-12.95 291.33-13.75 289.9-15.4 288.48-17.05 288.48-19.85L288.48-19.85Q288.48-22.15 289.8-24.05 291.13-25.95 293.6-27.05 296.08-28.15 299.43-28.15L299.43-28.15Q304.38-28.15 307.33-25.68 310.28-23.2 310.58-19L310.58-19 303.88-19Q303.73-20.65 302.5-21.63 301.28-22.6 299.23-22.6L299.23-22.6Q297.33-22.6 296.3-21.9 295.28-21.2 295.28-19.95L295.28-19.95Q295.28-18.55 296.68-17.82 298.08-17.1 301.03-16.35L301.03-16.35Q304.03-15.6 305.98-14.8 307.93-14 309.35-12.33 310.78-10.65 310.83-7.9L310.83-7.9Q310.83-5.5 309.5-3.6 308.18-1.7 305.7-0.63 303.23 0.45 299.93 0.45L299.93 0.45ZM342.33-14.45Q342.33-12.95 342.13-11.75L342.13-11.75 321.88-11.75Q322.13-8.75 323.98-7.05 325.83-5.35 328.53-5.35L328.53-5.35Q332.43-5.35 334.08-8.7L334.08-8.7 341.63-8.7Q340.43-4.7 337.03-2.13 333.63 0.45 328.68 0.45L328.68 0.45Q324.68 0.45 321.5-1.33 318.33-3.1 316.55-6.35 314.78-9.6 314.78-13.85L314.78-13.85Q314.78-18.15 316.53-21.4 318.28-24.65 321.43-26.4 324.58-28.15 328.68-28.15L328.68-28.15Q332.63-28.15 335.75-26.45 338.88-24.75 340.6-21.63 342.33-18.5 342.33-14.45L342.33-14.45ZM321.93-16.45L335.08-16.45Q335.03-19.15 333.13-20.78 331.23-22.4 328.48-22.4L328.48-22.4Q325.88-22.4 324.1-20.83 322.33-19.25 321.93-16.45L321.93-16.45Z" opacity="1" transform="matrix(1,0,0,1,0,0)" fill="#ffffff" class="wordmark-text-0" data-fill-palette-color="primary" id="text-0"></path></svg></g></svg></g></svg></g></svg></g><g><svg viewBox="0 0 108.9626660976099 108.9626660976099" height="108.9626660976099" width="108.9626660976099"><g><svg viewBox="0 0 108.9626660976099 108.9626660976099" height="108.9626660976099" width="108.9626660976099"><g transform="matrix(1,0,0,1,30.82620620002118,28.798586350876455)"><svg viewBox="0 0 47.31025369756754 51.36549339585699" height="51.36549339585699" width="47.31025369756754"><g><svg xmlns="http://www.w3.org/2000/svg" xmlns:xlink="http://www.w3.org/1999/xlink" version="1.1" baseProfile="tiny" x="0" y="0" viewBox="15 12 70 76.00011111111112" xml:space="preserve" height="51.36549339585699" width="47.31025369756754" class="icon-cg-0" data-fill-palette-color="accent" id="cg-0"><g fill="#323346" data-fill-palette-color="accent"><path fill-rule="evenodd" fill="#ffffff" d="M15.359 40.451c-0.199 0.078-0.32 0.18-0.359 0.299L15.359 40.451zM15 40.75v0.041 41.184C15 86.994 15.98 88 21 88h14c5.02 0 6-0.947 6-6.025V66h18v16.035c0 5.018 1.02 5.957 6 5.938 0.08 0.061 14 0 14 0 5.061 0 6-1.057 6-5.998V41.99c0-0.16-0.18-0.301-0.539-0.461L50 12 15.359 40.451 15 40.75z" data-fill-palette-color="accent"></path></g></svg></g></svg></g><g id="text-0"><path d="M1.957 36.466c0.302-0.869 0.741-1.577 1.315-2.123 0.572-0.54 1.235-0.882 1.989-1.025 0.752-0.137 1.543-0.06 2.374 0.229v0c0.837 0.291 1.505 0.723 2.003 1.294 0.496 0.578 0.797 1.255 0.903 2.032 0.111 0.785 0.015 1.612-0.288 2.481v0l-1.01 2.902-8.296-2.888zM8.816 38.918c0.302-0.869 0.299-1.624-0.012-2.266-0.304-0.639-0.89-1.11-1.759-1.412v0c-0.863-0.3-1.621-0.298-2.274 0.008-0.648 0.308-1.123 0.896-1.426 1.765v0l-0.41 1.18 5.47 1.904z" fill="#ffffff" data-fill-palette-color="accent"></path><path d="M10.262 25.886c-0.189-0.391-0.277-0.797-0.264-1.219 0.019-0.418 0.155-0.825 0.408-1.221v0l1.563 0.995-0.249 0.391c-0.296 0.465-0.412 0.884-0.347 1.259 0.069 0.379 0.376 0.741 0.92 1.088v0l2.931 1.866-0.946 1.487-5.881-3.743 0.947-1.487z" fill="#ffffff" data-fill-palette-color="accent"></path><path d="M21.621 16.266c0.18 0.181 0.329 0.355 0.447 0.521v0l-3.608 3.586c0.379 0.324 0.78 0.48 1.202 0.467 0.418-0.018 0.789-0.187 1.113-0.51v0c0.462-0.459 0.594-0.984 0.397-1.573v0l1.35-1.342c0.33 0.618 0.445 1.281 0.343 1.989-0.102 0.707-0.448 1.354-1.039 1.941v0c-0.476 0.473-1.007 0.792-1.591 0.957-0.585 0.164-1.176 0.155-1.774-0.027-0.598-0.173-1.148-0.512-1.649-1.017v0c-0.507-0.51-0.849-1.064-1.028-1.663-0.174-0.594-0.177-1.178-0.009-1.752 0.168-0.584 0.495-1.117 0.981-1.6v0c0.472-0.469 0.993-0.788 1.563-0.956 0.575-0.164 1.15-0.163 1.724 0.005 0.574 0.168 1.1 0.493 1.578 0.974zM17.629 19.523l2.344-2.329c-0.322-0.314-0.692-0.458-1.11-0.431-0.418 0.037-0.791 0.218-1.12 0.545v0c-0.31 0.308-0.477 0.659-0.502 1.052-0.025 0.394 0.104 0.781 0.388 1.163z" fill="#ffffff" data-fill-palette-color="accent"></path><path d="M26.063 13.116c-0.359-0.607-0.557-1.219-0.595-1.837-0.034-0.612 0.083-1.165 0.352-1.66 0.266-0.5 0.653-0.901 1.162-1.202v0c0.451-0.267 0.897-0.41 1.338-0.428 0.441-0.019 0.845 0.05 1.212 0.208v0l-0.508-0.859 1.526-0.902 3.549 6-1.526 0.902-0.518-0.876c-0.029 0.399-0.161 0.79-0.396 1.171-0.237 0.39-0.579 0.717-1.024 0.98v0c-0.503 0.297-1.039 0.439-1.61 0.425-0.57-0.014-1.115-0.183-1.634-0.508-0.523-0.33-0.966-0.802-1.328-1.414zM30.798 10.338c-0.219-0.37-0.477-0.642-0.775-0.817-0.302-0.18-0.618-0.267-0.949-0.258-0.325 0.005-0.629 0.091-0.912 0.259v0c-0.283 0.168-0.504 0.388-0.663 0.661-0.155 0.279-0.229 0.596-0.221 0.95 0.009 0.346 0.122 0.7 0.337 1.065v0c0.212 0.358 0.471 0.631 0.775 0.817 0.311 0.183 0.631 0.275 0.959 0.275 0.328 0.001 0.628-0.079 0.9-0.239v0c0.283-0.168 0.504-0.395 0.661-0.684 0.167-0.286 0.243-0.604 0.231-0.955-0.009-0.346-0.123-0.703-0.343-1.074z" fill="#ffffff" data-fill-palette-color="accent"></path><path d="M45.789 1.665c0.837-0.198 1.57-0.102 2.201 0.287 0.63 0.389 1.053 1.042 1.269 1.957v0l0.941 3.98-1.716 0.405-0.885-3.745c-0.125-0.529-0.355-0.903-0.689-1.12-0.334-0.218-0.737-0.271-1.207-0.16v0c-0.464 0.11-0.8 0.337-1.008 0.683-0.202 0.344-0.24 0.781-0.115 1.311v0l0.885 3.745-1.716 0.405-0.885-3.745c-0.125-0.529-0.355-0.903-0.689-1.12-0.341-0.216-0.743-0.269-1.207-0.16v0c-0.471 0.111-0.81 0.34-1.018 0.686-0.208 0.346-0.25 0.784-0.125 1.312v0l0.885 3.745-1.716 0.406-1.603-6.784 1.716-0.406 0.195 0.824c0.154-0.34 0.385-0.633 0.693-0.878 0.308-0.245 0.671-0.417 1.089-0.516v0c0.529-0.125 1.026-0.125 1.49-0.001 0.472 0.13 0.872 0.377 1.2 0.742v0c0.13-0.445 0.375-0.837 0.736-1.178 0.363-0.334 0.789-0.559 1.279-0.675z" fill="#ffffff" data-fill-palette-color="accent"></path><path d="M69.761 1.249l1.717 0.399-1.988 8.557-1.717-0.399 0.846-3.641-3.66-0.85-0.846 3.64-1.717-0.399 1.988-8.556 1.717 0.399-0.819 3.523 3.66 0.85z" fill="#ffffff" data-fill-palette-color="accent"></path><path d="M77.109 13.91c-0.59-0.32-1.048-0.737-1.374-1.249-0.331-0.516-0.501-1.09-0.51-1.721-0.012-0.625 0.152-1.251 0.491-1.877v0c0.339-0.626 0.778-1.102 1.314-1.43 0.537-0.328 1.116-0.495 1.739-0.501 0.619 0 1.224 0.16 1.814 0.48v0c0.59 0.32 1.054 0.74 1.391 1.259 0.34 0.528 0.516 1.105 0.528 1.731 0.018 0.629-0.143 1.256-0.482 1.881v0c-0.339 0.626-0.781 1.101-1.323 1.425-0.546 0.33-1.131 0.494-1.756 0.492-0.619 0-1.23-0.163-1.832-0.49zM77.839 12.564c0.283 0.154 0.586 0.23 0.907 0.229 0.322-0.001 0.628-0.102 0.921-0.303 0.295-0.191 0.548-0.482 0.759-0.871v0c0.317-0.584 0.41-1.115 0.279-1.591-0.137-0.479-0.427-0.839-0.87-1.08v0c-0.443-0.24-0.899-0.286-1.37-0.136-0.465 0.153-0.856 0.521-1.173 1.106v0c-0.317 0.584-0.416 1.111-0.296 1.581 0.12 0.47 0.401 0.825 0.843 1.065z" fill="#ffffff" data-fill-palette-color="accent"></path><path d="M92.607 16.712l1.307 1.198-4.709 5.14-1.307-1.198 0.592-0.646c-0.368 0.073-0.744 0.047-1.13-0.079-0.385-0.116-0.736-0.319-1.053-0.61v0c-0.401-0.367-0.676-0.778-0.824-1.233-0.158-0.454-0.171-0.927-0.041-1.417 0.126-0.495 0.397-0.97 0.814-1.426v0l2.763-3.015 1.3 1.19-2.592 2.83c-0.372 0.406-0.559 0.814-0.56 1.223 0.003 0.404 0.181 0.767 0.532 1.089v0c0.361 0.331 0.744 0.481 1.147 0.449 0.407-0.037 0.797-0.258 1.168-0.665v0z" fill="#ffffff" data-fill-palette-color="accent"></path><path d="M93.945 29.653c-0.314-0.477-0.51-0.959-0.589-1.446-0.077-0.496-0.042-0.949 0.106-1.36 0.15-0.42 0.399-0.757 0.747-1.009v0l0.974 1.481c-0.206 0.176-0.322 0.409-0.348 0.699-0.02 0.287 0.065 0.576 0.257 0.868v0c0.185 0.281 0.385 0.462 0.6 0.545 0.216 0.083 0.41 0.068 0.585-0.046v0c0.191-0.125 0.269-0.318 0.235-0.577-0.03-0.254-0.127-0.628-0.292-1.122v0c-0.183-0.498-0.311-0.925-0.383-1.28-0.069-0.349-0.05-0.699 0.056-1.05 0.097-0.353 0.342-0.659 0.735-0.917v0c0.32-0.21 0.675-0.312 1.067-0.304 0.386 0.012 0.771 0.14 1.157 0.384 0.38 0.248 0.724 0.605 1.03 1.071v0c0.458 0.696 0.649 1.366 0.574 2.01-0.078 0.638-0.395 1.172-0.948 1.601v0l-0.925-1.406c0.215-0.174 0.333-0.392 0.353-0.654 0.024-0.257-0.06-0.531-0.252-0.823v0c-0.173-0.264-0.356-0.437-0.547-0.521-0.188-0.078-0.371-0.057-0.551 0.061v0c-0.196 0.129-0.28 0.325-0.252 0.588 0.028 0.263 0.124 0.634 0.287 1.114v0c0.176 0.487 0.298 0.905 0.366 1.254 0.069 0.349 0.05 0.699-0.056 1.05-0.103 0.357-0.346 0.666-0.73 0.926v0c-0.337 0.221-0.698 0.326-1.083 0.315-0.391-0.008-0.774-0.138-1.149-0.39-0.38-0.248-0.722-0.602-1.024-1.062z" fill="#ffffff" data-fill-palette-color="accent"></path><path d="M103.359 41.469c-0.24 0.086-0.461 0.147-0.662 0.183v0l-1.715-4.789c-0.454 0.205-0.765 0.502-0.933 0.891-0.161 0.386-0.165 0.794-0.011 1.223v0c0.22 0.613 0.638 0.956 1.256 1.027v0l0.642 1.793c-0.7 0.037-1.349-0.141-1.946-0.534-0.597-0.393-1.036-0.981-1.317-1.765v0c-0.226-0.632-0.29-1.248-0.19-1.847 0.099-0.599 0.358-1.131 0.777-1.594 0.41-0.468 0.95-0.822 1.621-1.062v0c0.677-0.242 1.324-0.317 1.941-0.225 0.612 0.095 1.142 0.34 1.591 0.736 0.457 0.4 0.801 0.922 1.032 1.567v0c0.224 0.626 0.292 1.233 0.203 1.822-0.095 0.591-0.341 1.11-0.737 1.558-0.396 0.448-0.913 0.787-1.552 1.016zM102.105 36.472l1.114 3.111c0.421-0.158 0.708-0.432 0.861-0.822 0.144-0.394 0.138-0.809-0.018-1.246v0c-0.147-0.411-0.394-0.711-0.74-0.901-0.346-0.19-0.752-0.237-1.217-0.142z" fill="#ffffff" data-fill-palette-color="accent"></path><path d="M11.966 70.117c0.303 0.869 0.399 1.696 0.288 2.481-0.106 0.777-0.414 1.456-0.922 2.039-0.502 0.58-1.168 1.015-1.999 1.304v0c-0.831 0.289-1.62 0.361-2.368 0.216-0.754-0.143-1.414-0.486-1.979-1.028-0.574-0.547-1.013-1.254-1.316-2.123v0l-1.01-2.902 8.296-2.888zM5.068 72.455c0.303 0.869 0.774 1.458 1.416 1.769 0.641 0.31 1.393 0.315 2.256 0.014v0c0.863-0.3 1.455-0.773 1.777-1.419 0.323-0.646 0.333-1.403 0.031-2.272v0l-0.411-1.18-5.48 1.908z" fill="#ffffff" data-fill-palette-color="accent"></path><path d="M14.315 81.602c0.434-0.006 0.836 0.088 1.207 0.283 0.374 0.2 0.685 0.495 0.934 0.886v0l-1.563 0.995-0.249-0.391c-0.296-0.465-0.627-0.747-0.994-0.848-0.372-0.097-0.831 0.027-1.374 0.373v0l-2.932 1.866-0.947-1.487 5.881-3.743 0.947 1.487z" fill="#ffffff" data-fill-palette-color="accent"></path><path d="M21.841 93.594c-0.175 0.176-0.346 0.324-0.511 0.443v0l-3.616-3.593c-0.326 0.386-0.482 0.79-0.466 1.213 0.02 0.418 0.193 0.788 0.516 1.109v0c0.462 0.459 0.987 0.588 1.576 0.387v0l1.35 1.342c-0.616 0.334-1.278 0.453-1.986 0.355-0.708-0.097-1.355-0.437-1.941-1.019v0c-0.476-0.473-0.801-1.004-0.974-1.593-0.168-0.584-0.163-1.175 0.016-1.773 0.169-0.599 0.504-1.151 1.006-1.656v0c0.506-0.51 1.059-0.856 1.656-1.038 0.593-0.178 1.179-0.187 1.76-0.027 0.58 0.169 1.115 0.497 1.606 0.984v0c0.467 0.464 0.787 0.98 0.959 1.55 0.168 0.574 0.17 1.149 0.006 1.724-0.16 0.58-0.478 1.11-0.957 1.592zM18.552 89.615l2.344 2.329c0.312-0.324 0.454-0.695 0.423-1.112-0.035-0.423-0.214-0.795-0.537-1.117v0c-0.31-0.308-0.666-0.473-1.07-0.495-0.394-0.022-0.781 0.109-1.16 0.395z" fill="#ffffff" data-fill-palette-color="accent"></path><path d="M26.087 96.908c0.356-0.601 0.795-1.067 1.318-1.397 0.52-0.325 1.063-0.491 1.63-0.5 0.563-0.002 1.099 0.147 1.608 0.448v0c0.451 0.267 0.791 0.589 1.02 0.966 0.229 0.377 0.363 0.765 0.401 1.162v0l0.508-0.858 1.526 0.903-3.549 6-1.526-0.903 0.518-0.876c-0.364 0.167-0.77 0.239-1.217 0.217-0.45-0.017-0.901-0.158-1.352-0.425v0c-0.503-0.297-0.885-0.699-1.148-1.206-0.262-0.506-0.375-1.068-0.337-1.686 0.034-0.612 0.234-1.227 0.6-1.845zM30.797 99.729c0.219-0.37 0.333-0.728 0.342-1.073 0.013-0.351-0.064-0.67-0.23-0.956-0.157-0.288-0.378-0.516-0.661-0.683v0c-0.277-0.164-0.579-0.249-0.903-0.254-0.319-0.001-0.631 0.083-0.935 0.255-0.302 0.18-0.559 0.45-0.771 0.808v0c-0.215 0.364-0.331 0.725-0.347 1.082-0.01 0.361 0.063 0.685 0.22 0.973 0.157 0.288 0.372 0.512 0.644 0.673v0c0.283 0.168 0.589 0.251 0.917 0.25 0.331 0.008 0.647-0.078 0.948-0.258 0.298-0.175 0.557-0.447 0.776-0.817z" fill="#ffffff" data-fill-palette-color="accent"></path><path d="M47.447 101.425c0.83 0.196 1.44 0.609 1.829 1.24 0.389 0.63 0.476 1.403 0.26 2.317v0l-0.941 3.981-1.715-0.406 0.885-3.745c0.125-0.529 0.088-0.97-0.113-1.32-0.202-0.344-0.534-0.571-0.998-0.681v0c-0.464-0.11-0.867-0.056-1.207 0.16-0.342 0.223-0.576 0.599-0.702 1.128v0l-0.885 3.745-1.715-0.406 0.885-3.745c0.125-0.529 0.088-0.97-0.113-1.32-0.208-0.346-0.544-0.574-1.008-0.684v0c-0.471-0.111-0.876-0.059-1.217 0.158-0.342 0.223-0.576 0.599-0.701 1.128v0l-0.885 3.745-1.716-0.405 1.603-6.785 1.716 0.406-0.195 0.823c0.29-0.235 0.628-0.393 1.013-0.474 0.385-0.082 0.787-0.073 1.205 0.026v0c0.529 0.125 0.977 0.348 1.343 0.669 0.358 0.326 0.602 0.722 0.733 1.188v0c0.315-0.34 0.709-0.578 1.183-0.715 0.48-0.135 0.966-0.144 1.456-0.028z" fill="#ffffff" data-fill-palette-color="accent"></path><path d="M67.37 98.494l1.717-0.4 1.989 8.557-1.718 0.399-0.846-3.641-3.669 0.853 0.846 3.641-1.717 0.399-1.989-8.556 1.717-0.399 0.819 3.522 3.67-0.853z" fill="#ffffff" data-fill-palette-color="accent"></path><path d="M80.546 102.475c-0.59 0.32-1.192 0.479-1.805 0.475-0.613-0.004-1.187-0.174-1.721-0.51-0.531-0.331-0.966-0.809-1.306-1.435v0c-0.34-0.626-0.5-1.253-0.482-1.881 0.015-0.635 0.191-1.211 0.528-1.731 0.343-0.522 0.81-0.944 1.4-1.264v0c0.584-0.317 1.189-0.477 1.814-0.48 0.619 0 1.199 0.167 1.739 0.501 0.537 0.328 0.975 0.804 1.314 1.43v0c0.34 0.626 0.494 1.256 0.465 1.891-0.021 0.638-0.2 1.216-0.537 1.736-0.343 0.522-0.813 0.945-1.409 1.268zM79.816 101.129c0.277-0.151 0.503-0.361 0.677-0.631 0.174-0.27 0.26-0.584 0.257-0.941 0-0.352-0.105-0.722-0.317-1.112v0c-0.317-0.584-0.714-0.95-1.19-1.096-0.477-0.146-0.936-0.099-1.379 0.141v0c-0.443 0.24-0.73 0.598-0.861 1.074-0.125 0.473-0.03 1.002 0.287 1.586v0c0.317 0.584 0.705 0.955 1.164 1.111 0.465 0.153 0.919 0.109 1.362-0.132z" fill="#ffffff" data-fill-palette-color="accent"></path><path d="M87.896 88.217l1.315-1.205 4.709 5.14-1.315 1.204-0.592-0.646c0.041 0.373-0.018 0.745-0.177 1.119-0.149 0.374-0.383 0.706-0.7 0.996v0c-0.401 0.367-0.835 0.605-1.3 0.713-0.466 0.117-0.938 0.09-1.415-0.083-0.482-0.168-0.932-0.48-1.35-0.936v0l-2.762-3.015 1.299-1.191 2.593 2.829c0.372 0.406 0.762 0.627 1.169 0.665 0.403 0.032 0.782-0.116 1.139-0.442v0c0.357-0.327 0.536-0.692 0.54-1.096-0.001-0.409-0.188-0.816-0.56-1.223v0z" fill="#ffffff" data-fill-palette-color="accent"></path><path d="M99.952 84.37c-0.314 0.477-0.678 0.848-1.094 1.113-0.425 0.267-0.855 0.414-1.29 0.441-0.445 0.029-0.853-0.067-1.223-0.286v0l0.974-1.481c0.243 0.12 0.503 0.134 0.78 0.043 0.275-0.1 0.507-0.294 0.695-0.58v0c0.185-0.281 0.272-0.536 0.264-0.767-0.009-0.231-0.1-0.404-0.275-0.518v0c-0.191-0.126-0.397-0.124-0.617 0.004-0.225 0.134-0.531 0.374-0.92 0.72v0c-0.391 0.362-0.733 0.643-1.026 0.845-0.297 0.207-0.625 0.333-0.984 0.377-0.363 0.051-0.741-0.053-1.134-0.311v0c-0.32-0.21-0.553-0.497-0.701-0.859-0.142-0.359-0.177-0.764-0.105-1.215 0.077-0.448 0.271-0.907 0.581-1.378v0c0.454-0.69 0.989-1.13 1.604-1.32 0.621-0.186 1.239-0.105 1.854 0.243v0l-0.924 1.405c-0.245-0.129-0.492-0.151-0.741-0.065-0.251 0.076-0.471 0.257-0.659 0.543v0c-0.177 0.269-0.263 0.51-0.258 0.722 0.003 0.203 0.094 0.364 0.274 0.482v0c0.196 0.129 0.41 0.129 0.639-0.001 0.23-0.13 0.532-0.369 0.907-0.718v0c0.38-0.345 0.716-0.618 1.009-0.819 0.293-0.201 0.624-0.325 0.992-0.372 0.365-0.041 0.743 0.063 1.134 0.311v0c0.337 0.221 0.576 0.511 0.718 0.87 0.147 0.362 0.18 0.765 0.097 1.21-0.074 0.442-0.264 0.896-0.571 1.361z" fill="#ffffff" data-fill-palette-color="accent"></path><path d="M103.077 68.49c0.234 0.084 0.44 0.175 0.618 0.275v0l-1.718 4.799c0.488 0.132 0.92 0.101 1.296-0.093 0.37-0.196 0.631-0.509 0.785-0.938v0c0.22-0.613 0.113-1.144-0.318-1.591v0l0.641-1.792c0.564 0.416 0.953 0.965 1.165 1.647 0.212 0.682 0.179 1.412-0.099 2.19v0c-0.226 0.632-0.569 1.151-1.029 1.558-0.457 0.4-0.995 0.646-1.612 0.739-0.614 0.101-1.256 0.032-1.927-0.209v0c-0.677-0.242-1.224-0.595-1.643-1.059-0.413-0.462-0.67-0.989-0.771-1.581-0.093-0.597-0.023-1.221 0.21-1.872v0c0.222-0.62 0.554-1.128 0.996-1.527 0.448-0.396 0.968-0.641 1.559-0.737 0.593-0.102 1.208-0.038 1.847 0.191zM100.871 73.157l1.113-3.111c-0.426-0.145-0.822-0.116-1.187 0.089-0.368 0.211-0.629 0.531-0.783 0.961v0c-0.147 0.411-0.145 0.804 0.006 1.179 0.147 0.366 0.43 0.661 0.851 0.882z" fill="#ffffff" data-fill-palette-color="accent"></path><path d="M0.634 55.034c0-1.853 1.502-3.356 3.355-3.356 1.853 0 3.356 1.502 3.356 3.356 0 1.853-1.502 3.356-3.356 3.356-1.853 0-3.356-1.502-3.355-3.356z" fill="#ffffff" data-fill-palette-color="accent"></path><path d="M101.618 55.034c0-1.853 1.502-3.356 3.355-3.356 1.853 0 3.356 1.502 3.356 3.356 0 1.853-1.502 3.356-3.356 3.356-1.853 0-3.356-1.502-3.355-3.356z" fill="#ffffff" data-fill-palette-color="accent"></path></g><g id="text-1"></g></svg></g></svg></g></svg></g><defs></defs></svg><rect width="395.52" height="81.49460422797917" fill="none" stroke="none" visibility="hidden"></rect></g></svg></g></svg>