<svg xmlns="http://www.w3.org/2000/svg" version="1.1" xmlns:xlink="http://www.w3.org/1999/xlink" xmlns:svgjs="http://svgjs.dev/svgjs" width="2000" height="444" viewBox="0 0 2000 444"><g transform="matrix(1,0,0,1,-1.2121212121212466,-0.32613802019798754)"><svg viewBox="0 0 396 88" data-background-color="#ffffff" preserveAspectRatio="xMidYMid meet" height="444" width="2000" xmlns="http://www.w3.org/2000/svg" xmlns:xlink="http://www.w3.org/1999/xlink"><g id="tight-bounds" transform="matrix(1,0,0,1,0.2400000000000091,0.06463996796716742)"><svg viewBox="0 0 395.52 87.87059269896015" height="87.87059269896015" width="395.52"><g><svg viewBox="0 0 543.1547433001851 120.66982509364591" height="87.87059269896015" width="395.52"><g transform="matrix(1,0,0,1,147.63474330018508,37.49064357705121)"><svg viewBox="0 0 395.52000000000004 45.688537939543494" height="45.688537939543494" width="395.52000000000004"><g id="textblocktransform"><svg viewBox="0 0 395.52000000000004 45.688537939543494" height="45.688537939543494" width="395.52000000000004" id="textblock"><g><svg viewBox="0 0 395.52000000000004 45.688537939543494" height="45.688537939543494" width="395.52000000000004"><g transform="matrix(1,0,0,1,0,0)"><svg width="395.52000000000004" viewBox="3.45 -37 324.18 37.45" height="45.688537939543494" data-palette-color="#413a3a"><path d="M15.65-34.9Q21.15-34.9 25.33-32.75 29.5-30.6 31.78-26.63 34.05-22.65 34.05-17.4L34.05-17.4Q34.05-12.15 31.78-8.22 29.5-4.3 25.33-2.15 21.15 0 15.65 0L15.65 0 3.45 0 3.45-34.9 15.65-34.9ZM15.4-5.95Q20.9-5.95 23.9-8.95 26.9-11.95 26.9-17.4L26.9-17.4Q26.9-22.85 23.9-25.93 20.9-29 15.4-29L15.4-29 10.45-29 10.45-5.95 15.4-5.95ZM46.3-23.4Q47.65-25.6 49.82-26.85 52-28.1 54.8-28.1L54.8-28.1 54.8-20.75 52.95-20.75Q49.65-20.75 47.97-19.2 46.3-17.65 46.3-13.8L46.3-13.8 46.3 0 39.3 0 39.3-27.7 46.3-27.7 46.3-23.4ZM85.25-14.45Q85.25-12.95 85.05-11.75L85.05-11.75 64.8-11.75Q65.05-8.75 66.9-7.05 68.75-5.35 71.45-5.35L71.45-5.35Q75.35-5.35 77-8.7L77-8.7 84.55-8.7Q83.35-4.7 79.95-2.13 76.55 0.45 71.6 0.45L71.6 0.45Q67.6 0.45 64.42-1.33 61.25-3.1 59.47-6.35 57.7-9.6 57.7-13.85L57.7-13.85Q57.7-18.15 59.45-21.4 61.2-24.65 64.35-26.4 67.5-28.15 71.6-28.15L71.6-28.15Q75.55-28.15 78.67-26.45 81.8-24.75 83.52-21.63 85.25-18.5 85.25-14.45L85.25-14.45ZM64.85-16.45L78-16.45Q77.95-19.15 76.05-20.78 74.15-22.4 71.4-22.4L71.4-22.4Q68.8-22.4 67.02-20.83 65.25-19.25 64.85-16.45L64.85-16.45ZM88.54-13.95Q88.54-18.15 90.22-21.4 91.89-24.65 94.77-26.4 97.64-28.15 101.19-28.15L101.19-28.15Q104.29-28.15 106.62-26.9 108.94-25.65 110.34-23.75L110.34-23.75 110.34-27.7 117.39-27.7 117.39 0 110.34 0 110.34-4.05Q108.99-2.1 106.62-0.83 104.24 0.45 101.14 0.45L101.14 0.45Q97.64 0.45 94.77-1.35 91.89-3.15 90.22-6.43 88.54-9.7 88.54-13.95L88.54-13.95ZM110.34-13.85Q110.34-16.4 109.34-18.23 108.34-20.05 106.64-21.03 104.94-22 102.99-22L102.99-22Q101.04-22 99.39-21.05 97.74-20.1 96.72-18.28 95.69-16.45 95.69-13.95L95.69-13.95Q95.69-11.45 96.72-9.58 97.74-7.7 99.42-6.7 101.09-5.7 102.99-5.7L102.99-5.7Q104.94-5.7 106.64-6.68 108.34-7.65 109.34-9.47 110.34-11.3 110.34-13.85L110.34-13.85ZM158.64-28.1Q163.74-28.1 166.87-24.98 169.99-21.85 169.99-16.25L169.99-16.25 169.99 0 162.99 0 162.99-15.3Q162.99-18.55 161.34-20.28 159.69-22 156.84-22L156.84-22Q153.99-22 152.32-20.28 150.64-18.55 150.64-15.3L150.64-15.3 150.64 0 143.64 0 143.64-15.3Q143.64-18.55 141.99-20.28 140.34-22 137.49-22L137.49-22Q134.59-22 132.92-20.28 131.24-18.55 131.24-15.3L131.24-15.3 131.24 0 124.24 0 124.24-27.7 131.24-27.7 131.24-24.35Q132.59-26.1 134.72-27.1 136.84-28.1 139.39-28.1L139.39-28.1Q142.64-28.1 145.19-26.73 147.74-25.35 149.14-22.8L149.14-22.8Q150.49-25.2 153.07-26.65 155.64-28.1 158.64-28.1L158.64-28.1ZM192.24-28.1Q195.39-28.1 197.84-26.73 200.29-25.35 201.66-22.68 203.04-20 203.04-16.25L203.04-16.25 203.04 0 196.04 0 196.04-15.3Q196.04-18.6 194.39-20.38 192.74-22.15 189.89-22.15L189.89-22.15Q186.99-22.15 185.31-20.38 183.64-18.6 183.64-15.3L183.64-15.3 183.64 0 176.64 0 176.64-37 183.64-37 183.64-24.25Q184.99-26.05 187.24-27.08 189.49-28.1 192.24-28.1L192.24-28.1ZM221.99 0.45Q217.99 0.45 214.79-1.33 211.59-3.1 209.76-6.35 207.94-9.6 207.94-13.85L207.94-13.85Q207.94-18.1 209.81-21.35 211.69-24.6 214.94-26.38 218.19-28.15 222.19-28.15L222.19-28.15Q226.19-28.15 229.44-26.38 232.69-24.6 234.56-21.35 236.44-18.1 236.44-13.85L236.44-13.85Q236.44-9.6 234.51-6.35 232.59-3.1 229.31-1.33 226.04 0.45 221.99 0.45L221.99 0.45ZM221.99-5.65Q223.89-5.65 225.56-6.58 227.24-7.5 228.24-9.35 229.24-11.2 229.24-13.85L229.24-13.85Q229.24-17.8 227.16-19.93 225.09-22.05 222.09-22.05L222.09-22.05Q219.09-22.05 217.06-19.93 215.04-17.8 215.04-13.85L215.04-13.85Q215.04-9.9 217.01-7.78 218.99-5.65 221.99-5.65L221.99-5.65ZM260.68-27.7L267.73-27.7 267.73 0 260.68 0 260.68-3.5Q259.33-1.7 257.16-0.68 254.98 0.35 252.43 0.35L252.43 0.35Q249.18 0.35 246.68-1.03 244.18-2.4 242.76-5.08 241.33-7.75 241.33-11.45L241.33-11.45 241.33-27.7 248.33-27.7 248.33-12.45Q248.33-9.15 249.98-7.38 251.63-5.6 254.48-5.6L254.48-5.6Q257.38-5.6 259.03-7.38 260.68-9.15 260.68-12.45L260.68-12.45 260.68-27.7ZM285.23 0.45Q281.83 0.45 279.13-0.78 276.43-2 274.86-4.1 273.28-6.2 273.13-8.75L273.13-8.75 280.18-8.75Q280.38-7.15 281.76-6.1 283.13-5.05 285.18-5.05L285.18-5.05Q287.18-5.05 288.31-5.85 289.43-6.65 289.43-7.9L289.43-7.9Q289.43-9.25 288.06-9.93 286.68-10.6 283.68-11.4L283.68-11.4Q280.58-12.15 278.61-12.95 276.63-13.75 275.21-15.4 273.78-17.05 273.78-19.85L273.78-19.85Q273.78-22.15 275.11-24.05 276.43-25.95 278.91-27.05 281.38-28.15 284.73-28.15L284.73-28.15Q289.68-28.15 292.63-25.68 295.58-23.2 295.88-19L295.88-19 289.18-19Q289.03-20.65 287.81-21.63 286.58-22.6 284.53-22.6L284.53-22.6Q282.63-22.6 281.61-21.9 280.58-21.2 280.58-19.95L280.58-19.95Q280.58-18.55 281.98-17.82 283.38-17.1 286.33-16.35L286.33-16.35Q289.33-15.6 291.28-14.8 293.23-14 294.66-12.33 296.08-10.65 296.13-7.9L296.13-7.9Q296.13-5.5 294.81-3.6 293.48-1.7 291.01-0.63 288.53 0.45 285.23 0.45L285.23 0.45ZM327.63-14.45Q327.63-12.95 327.43-11.75L327.43-11.75 307.18-11.75Q307.43-8.75 309.28-7.05 311.13-5.35 313.83-5.35L313.83-5.35Q317.73-5.35 319.38-8.7L319.38-8.7 326.93-8.7Q325.73-4.7 322.33-2.13 318.93 0.45 313.98 0.45L313.98 0.45Q309.98 0.45 306.8-1.33 303.63-3.1 301.85-6.35 300.08-9.6 300.08-13.85L300.08-13.85Q300.08-18.15 301.83-21.4 303.58-24.65 306.73-26.4 309.88-28.15 313.98-28.15L313.98-28.15Q317.93-28.15 321.05-26.45 324.18-24.75 325.9-21.63 327.63-18.5 327.63-14.45L327.63-14.45ZM307.23-16.45L320.38-16.45Q320.33-19.15 318.43-20.78 316.53-22.4 313.78-22.4L313.78-22.4Q311.18-22.4 309.4-20.83 307.63-19.25 307.23-16.45L307.23-16.45Z" opacity="1" transform="matrix(1,0,0,1,0,0)" fill="#413a3a" class="wordmark-text-0" data-fill-palette-color="primary" id="text-0"></path></svg></g></svg></g></svg></g></svg></g><g><svg viewBox="0 0 120.66982509364591 120.66982509364591" height="120.66982509364591" width="120.66982509364591"><g><svg viewBox="0 0 120.66982509364591 120.66982509364591" height="120.66982509364591" width="120.66982509364591"><g transform="matrix(1,0,0,1,34.138233247018654,31.892762010719075)"><svg viewBox="0 0 52.393358599608604 56.88430107220776" height="56.88430107220776" width="52.393358599608604"><g><svg xmlns="http://www.w3.org/2000/svg" xmlns:xlink="http://www.w3.org/1999/xlink" version="1.1" baseProfile="tiny" x="0" y="0" viewBox="15 12 70 76.00011111111112" xml:space="preserve" height="56.88430107220776" width="52.393358599608604" class="icon-cg-0" data-fill-palette-color="accent" id="cg-0"><g fill="#413a3a" data-fill-palette-color="accent"><path fill-rule="evenodd" fill="#413a3a" d="M15.359 40.451c-0.199 0.078-0.32 0.18-0.359 0.299L15.359 40.451zM15 40.75v0.041 41.184C15 86.994 15.98 88 21 88h14c5.02 0 6-0.947 6-6.025V66h18v16.035c0 5.018 1.02 5.957 6 5.938 0.08 0.061 14 0 14 0 5.061 0 6-1.057 6-5.998V41.99c0-0.16-0.18-0.301-0.539-0.461L50 12 15.359 40.451 15 40.75z" data-fill-palette-color="accent"></path></g></svg></g></svg></g><g id="text-0"><path d="M2.978 40.936c0.331-0.951 0.807-1.725 1.429-2.322 0.626-0.589 1.351-0.96 2.176-1.114 0.819-0.157 1.685-0.076 2.599 0.242v0c0.907 0.316 1.63 0.788 2.168 1.417 0.545 0.631 0.879 1.372 1.004 2.222 0.116 0.854 0.009 1.756-0.322 2.707v0l-1.105 3.171-9.053-3.152zM10.461 43.615c0.331-0.951 0.327-1.776-0.011-2.476-0.338-0.7-0.977-1.213-1.915-1.54v0c-0.944-0.329-1.773-0.326-2.485 0.008-0.712 0.334-1.234 0.976-1.566 1.927v0l-0.447 1.285 5.976 2.081z" fill="#413a3a" data-fill-palette-color="accent"></path><path d="M12.623 28.501c-0.201-0.427-0.287-0.874-0.257-1.338 0.032-0.456 0.188-0.896 0.47-1.321v0l1.681 1.114-0.279 0.422c-0.333 0.502-0.467 0.962-0.401 1.379 0.069 0.411 0.396 0.811 0.981 1.198v0l3.164 2.096-1.065 1.607-6.344-4.203 1.065-1.606z" fill="#413a3a" data-fill-palette-color="accent"></path><path d="M26.012 17.585c0.189 0.204 0.343 0.4 0.462 0.587v0l-4.087 3.775c0.407 0.372 0.84 0.558 1.299 0.558 0.459-0.001 0.871-0.169 1.237-0.506v0c0.525-0.485 0.689-1.055 0.49-1.71v0l1.525-1.409c0.338 0.688 0.438 1.416 0.3 2.184-0.138 0.768-0.541 1.46-1.208 2.075v0c-0.54 0.499-1.132 0.824-1.775 0.977-0.648 0.157-1.294 0.127-1.937-0.091-0.643-0.218-1.227-0.611-1.752-1.18v0c-0.535-0.579-0.888-1.195-1.059-1.849-0.171-0.654-0.15-1.295 0.063-1.924 0.203-0.629 0.58-1.198 1.129-1.706v0c0.53-0.49 1.113-0.816 1.747-0.978 0.63-0.158 1.257-0.133 1.881 0.075 0.62 0.203 1.182 0.577 1.685 1.122zM21.518 20.991l2.657-2.453c-0.342-0.36-0.743-0.531-1.203-0.512-0.455 0.015-0.868 0.193-1.238 0.535v0c-0.35 0.324-0.546 0.702-0.586 1.136-0.046 0.439 0.078 0.87 0.37 1.294z" fill="#413a3a" data-fill-palette-color="accent"></path><path d="M31.841 13.794c-0.354-0.682-0.534-1.357-0.539-2.027-0.005-0.669 0.155-1.267 0.478-1.793 0.314-0.529 0.763-0.945 1.344-1.248v0c0.499-0.26 0.994-0.386 1.483-0.379 0.483 0.01 0.919 0.108 1.306 0.294v0l-0.499-0.96 1.718-0.894 3.511 6.751-1.718 0.894-0.514-0.987c-0.058 0.433-0.225 0.852-0.499 1.256-0.281 0.407-0.674 0.742-1.18 1.006v0c-0.57 0.296-1.162 0.421-1.776 0.374-0.623-0.049-1.208-0.271-1.756-0.665-0.545-0.388-0.998-0.929-1.359-1.622zM37.169 11.056c-0.217-0.417-0.484-0.73-0.801-0.938-0.32-0.214-0.66-0.329-1.019-0.344-0.359-0.015-0.697 0.06-1.014 0.225v0c-0.317 0.165-0.567 0.396-0.749 0.692-0.191 0.293-0.291 0.633-0.299 1.018-0.018 0.382 0.079 0.776 0.29 1.182v0c0.211 0.405 0.481 0.717 0.81 0.933 0.323 0.22 0.663 0.342 1.019 0.366 0.359 0.015 0.691-0.057 0.997-0.216v0c0.317-0.165 0.573-0.399 0.766-0.701 0.194-0.302 0.296-0.643 0.308-1.022 0.009-0.385-0.094-0.783-0.308-1.195z" fill="#413a3a" data-fill-palette-color="accent"></path><path d="M55.109 2.392c0.922-0.148 1.709 0.014 2.362 0.487 0.66 0.478 1.071 1.223 1.234 2.237v0l0.706 4.404-1.903 0.305-0.665-4.149c-0.094-0.589-0.314-1.016-0.658-1.283-0.351-0.266-0.785-0.357-1.302-0.274v0c-0.517 0.083-0.9 0.305-1.151 0.667-0.25 0.362-0.329 0.837-0.234 1.426v0l0.665 4.149-1.903 0.305-0.665-4.149c-0.094-0.589-0.317-1.016-0.668-1.281-0.345-0.267-0.775-0.359-1.292-0.276v0c-0.523 0.084-0.913 0.307-1.17 0.671-0.25 0.362-0.329 0.837-0.234 1.426v0l0.665 4.149-1.903 0.305-1.205-7.514 1.903-0.305 0.145 0.903c0.192-0.353 0.466-0.652 0.822-0.897 0.358-0.238 0.765-0.394 1.223-0.468v0c0.589-0.094 1.135-0.055 1.639 0.12 0.498 0.175 0.911 0.471 1.239 0.888v0c0.179-0.471 0.48-0.875 0.903-1.211 0.422-0.336 0.905-0.548 1.447-0.635z" fill="#413a3a" data-fill-palette-color="accent"></path><path d="M71.489 3.108c0.569 0.093 1.055 0.301 1.458 0.622 0.404 0.321 0.69 0.744 0.859 1.269 0.169 0.524 0.197 1.126 0.086 1.806v0l-0.724 4.401-1.902-0.312 0.682-4.147c0.098-0.595 0.023-1.08-0.224-1.456-0.241-0.369-0.62-0.595-1.136-0.68v0c-0.523-0.086-0.964 0.006-1.324 0.275-0.354 0.277-0.58 0.713-0.678 1.308v0l-0.682 4.147-1.902-0.313 1.649-10.028 1.902 0.313-0.568 3.45c0.296-0.287 0.664-0.488 1.106-0.603 0.435-0.116 0.901-0.134 1.398-0.052z" fill="#413a3a" data-fill-palette-color="accent"></path><path d="M82.572 15.015c-0.664-0.315-1.193-0.745-1.588-1.29-0.388-0.543-0.604-1.154-0.648-1.835-0.05-0.683 0.091-1.375 0.423-2.075v0c0.335-0.706 0.785-1.255 1.351-1.647 0.564-0.385 1.186-0.6 1.866-0.644 0.678-0.038 1.346 0.099 2.004 0.411v0c0.664 0.315 1.196 0.746 1.596 1.295 0.397 0.554 0.622 1.17 0.675 1.847 0.056 0.686-0.083 1.382-0.417 2.089v0c-0.332 0.7-0.784 1.245-1.356 1.633-0.572 0.388-1.2 0.6-1.884 0.635-0.678 0.038-1.352-0.102-2.022-0.419zM83.286 13.507c0.311 0.147 0.644 0.21 0.999 0.188 0.346-0.019 0.677-0.145 0.992-0.377 0.306-0.229 0.563-0.562 0.77-0.998v0c0.309-0.652 0.377-1.236 0.203-1.751-0.18-0.518-0.518-0.894-1.015-1.13v0c-0.497-0.235-0.996-0.256-1.499-0.061-0.502 0.194-0.908 0.618-1.217 1.27v0c-0.309 0.652-0.383 1.233-0.221 1.743 0.162 0.509 0.491 0.881 0.988 1.116z" fill="#413a3a" data-fill-palette-color="accent"></path><path d="M100.428 17.874l1.475 1.255-4.932 5.796-1.475-1.256 0.624-0.734c-0.406 0.089-0.821 0.075-1.244-0.041-0.427-0.111-0.817-0.317-1.17-0.617v0c-0.454-0.386-0.776-0.826-0.966-1.318-0.185-0.488-0.217-1.002-0.096-1.543 0.121-0.541 0.402-1.071 0.845-1.59v0l2.891-3.397 1.46 1.243-2.717 3.192c-0.391 0.459-0.575 0.911-0.553 1.356 0.017 0.44 0.224 0.83 0.622 1.169v0c0.404 0.343 0.826 0.49 1.269 0.44 0.442-0.05 0.859-0.304 1.249-0.763v0z" fill="#413a3a" data-fill-palette-color="accent"></path><path d="M102.928 32.712c-0.352-0.514-0.577-1.037-0.677-1.571-0.095-0.537-0.064-1.032 0.092-1.484 0.152-0.457 0.415-0.83 0.789-1.117v0l1.094 1.599c-0.222 0.192-0.339 0.449-0.352 0.77-0.016 0.316 0.08 0.627 0.289 0.934v0c0.209 0.306 0.432 0.503 0.669 0.589 0.236 0.087 0.45 0.065 0.641-0.065v0c0.202-0.138 0.284-0.347 0.246-0.626-0.044-0.275-0.161-0.681-0.351-1.216v0c-0.207-0.549-0.353-1.014-0.438-1.398-0.082-0.377-0.072-0.761 0.03-1.152 0.106-0.385 0.369-0.722 0.79-1.01v0c0.35-0.239 0.736-0.355 1.158-0.347 0.424-0.001 0.848 0.13 1.27 0.395 0.424 0.256 0.81 0.638 1.157 1.146v0c0.512 0.749 0.731 1.474 0.657 2.175-0.065 0.703-0.4 1.293-1.003 1.77v0l-1.038-1.517c0.231-0.19 0.357-0.429 0.377-0.715 0.02-0.287-0.076-0.586-0.289-0.898v0c-0.194-0.284-0.398-0.47-0.61-0.557-0.214-0.078-0.414-0.054-0.6 0.073v0c-0.213 0.146-0.301 0.363-0.265 0.651 0.033 0.283 0.145 0.687 0.337 1.214v0c0.201 0.528 0.34 0.983 0.416 1.364 0.082 0.377 0.07 0.759-0.036 1.144-0.102 0.391-0.359 0.731-0.77 1.021v0c-0.366 0.251-0.761 0.372-1.183 0.364-0.424 0.001-0.848-0.13-1.27-0.395-0.413-0.263-0.789-0.644-1.13-1.141z" fill="#413a3a" data-fill-palette-color="accent"></path><path d="M113.721 46.403c-0.262 0.094-0.502 0.159-0.722 0.195v0l-1.875-5.237c-0.502 0.229-0.842 0.555-1.022 0.978-0.179 0.423-0.185 0.868-0.017 1.335v0c0.241 0.673 0.702 1.047 1.382 1.12v0l0.7 1.955c-0.766 0.042-1.475-0.151-2.128-0.579-0.653-0.428-1.132-1.069-1.437-1.922v0c-0.248-0.692-0.316-1.364-0.205-2.016 0.109-0.658 0.389-1.24 0.841-1.747 0.452-0.506 1.042-0.89 1.772-1.152v0c0.742-0.266 1.447-0.349 2.115-0.251 0.668 0.098 1.25 0.368 1.747 0.81 0.5 0.433 0.876 1.002 1.128 1.707v0c0.243 0.68 0.316 1.343 0.217 1.99-0.101 0.641-0.369 1.209-0.805 1.702-0.429 0.491-0.993 0.862-1.691 1.112zM112.343 40.935l1.219 3.404c0.465-0.174 0.779-0.476 0.942-0.907 0.164-0.425 0.162-0.874-0.008-1.348v0c-0.161-0.449-0.433-0.777-0.817-0.984-0.386-0.214-0.831-0.269-1.336-0.165z" fill="#413a3a" data-fill-palette-color="accent"></path><path d="M14.321 77.784c0.355 1.005 0.471 1.959 0.347 2.859-0.122 0.907-0.476 1.696-1.061 2.366-0.577 0.674-1.346 1.181-2.307 1.521v0c-0.962 0.34-1.876 0.427-2.742 0.263-0.864-0.158-1.628-0.552-2.293-1.182-0.663-0.623-1.171-1.437-1.526-2.442v0l-1.185-3.354 9.583-3.385zM6.342 80.518c0.357 1.012 0.908 1.695 1.652 2.051 0.744 0.355 1.615 0.357 2.614 0.004v0c0.999-0.353 1.683-0.903 2.051-1.652 0.368-0.748 0.373-1.628 0.016-2.64v0l-0.48-1.358-6.333 2.237z" fill="#413a3a" data-fill-palette-color="accent"></path><path d="M17.217 91.062c0.5-0.014 0.969 0.087 1.408 0.304 0.435 0.212 0.803 0.543 1.104 0.996v0l-1.787 1.188-0.297-0.446c-0.352-0.529-0.744-0.849-1.176-0.96-0.433-0.101-0.959 0.053-1.576 0.464v0l-3.35 2.229-1.128-1.695 6.716-4.469 1.128 1.695z" fill="#413a3a" data-fill-palette-color="accent"></path><path d="M26.4 104.711c-0.198 0.214-0.392 0.395-0.583 0.542v0l-4.332-4.007c-0.357 0.464-0.514 0.936-0.472 1.417 0.038 0.486 0.248 0.907 0.633 1.262v0c0.559 0.517 1.176 0.646 1.849 0.385v0l1.612 1.491c-0.696 0.411-1.456 0.579-2.28 0.503-0.823-0.085-1.588-0.454-2.292-1.106v0c-0.569-0.526-0.965-1.127-1.188-1.803-0.218-0.671-0.24-1.355-0.065-2.05 0.175-0.696 0.543-1.347 1.105-1.955v0c0.567-0.613 1.19-1.033 1.87-1.261 0.68-0.237 1.358-0.273 2.035-0.107 0.681 0.17 1.314 0.525 1.897 1.066v0c0.564 0.522 0.955 1.109 1.172 1.761 0.222 0.657 0.25 1.319 0.084 1.986-0.166 0.677-0.514 1.302-1.045 1.876zM22.431 100.253l2.807 2.598c0.35-0.389 0.498-0.825 0.442-1.311-0.051-0.481-0.274-0.903-0.668-1.268v0c-0.369-0.342-0.786-0.515-1.251-0.521-0.46-0.01-0.903 0.157-1.33 0.502z" fill="#413a3a" data-fill-palette-color="accent"></path><path d="M31.566 108.392c0.378-0.722 0.856-1.286 1.435-1.693 0.588-0.41 1.207-0.635 1.857-0.677 0.65-0.041 1.279 0.098 1.89 0.417v0c0.534 0.279 0.945 0.629 1.233 1.049 0.285 0.426 0.462 0.866 0.532 1.321v0l0.534-1.021 1.822 0.953-3.74 7.148-1.822-0.954 0.548-1.047c-0.404 0.215-0.87 0.326-1.397 0.334-0.519 0.005-1.045-0.132-1.579-0.411v0c-0.604-0.316-1.072-0.759-1.402-1.328-0.333-0.563-0.499-1.203-0.497-1.92 0.007-0.714 0.203-1.437 0.586-2.171zM37.177 111.361c0.23-0.44 0.342-0.86 0.334-1.26-0.004-0.406-0.11-0.768-0.318-1.086-0.204-0.324-0.474-0.573-0.808-0.748v0c-0.334-0.175-0.688-0.256-1.062-0.241-0.368 0.017-0.721 0.135-1.059 0.353-0.342 0.225-0.625 0.551-0.849 0.98v0c-0.224 0.428-0.333 0.85-0.326 1.265 0.007 0.415 0.108 0.786 0.304 1.112 0.199 0.321 0.462 0.567 0.791 0.739v0c0.334 0.175 0.693 0.254 1.075 0.237 0.379-0.011 0.737-0.13 1.073-0.357 0.333-0.222 0.615-0.553 0.845-0.994z" fill="#413a3a" data-fill-palette-color="accent"></path><path d="M56.593 112.062c0.981 0.158 1.723 0.586 2.228 1.285 0.498 0.697 0.661 1.582 0.488 2.654v0l-0.753 4.669-2.01-0.324 0.708-4.394c0.101-0.628 0.021-1.13-0.24-1.508-0.267-0.385-0.671-0.621-1.214-0.709v0c-0.549-0.089-1.011 0.008-1.385 0.29-0.373 0.275-0.61 0.727-0.711 1.354v0l-0.709 4.394-2.01-0.324 0.708-4.394c0.101-0.628 0.018-1.131-0.25-1.509-0.26-0.384-0.661-0.62-1.204-0.707v0c-0.556-0.09-1.024 0.006-1.405 0.286-0.373 0.275-0.61 0.727-0.711 1.355v0l-0.708 4.394-2.011-0.324 1.284-7.964 2.01 0.324-0.155 0.961c0.315-0.291 0.691-0.499 1.127-0.623 0.437-0.131 0.901-0.157 1.391-0.078v0c0.621 0.1 1.155 0.324 1.603 0.671 0.448 0.341 0.767 0.778 0.956 1.311v0c0.336-0.422 0.772-0.731 1.306-0.926 0.542-0.201 1.098-0.256 1.667-0.164z" fill="#413a3a" data-fill-palette-color="accent"></path><path d="M70.32 111.319c0.608-0.101 1.169-0.056 1.684 0.134 0.507 0.185 0.937 0.51 1.289 0.975 0.347 0.473 0.58 1.069 0.699 1.788v0l0.771 4.665-2.009 0.333-0.726-4.391c-0.105-0.634-0.345-1.094-0.722-1.381-0.37-0.288-0.826-0.387-1.368-0.297v0c-0.555 0.092-0.968 0.335-1.239 0.728-0.264 0.393-0.344 0.906-0.239 1.54v0l0.726 4.391-2.009 0.332-1.759-10.634 2.009-0.332 0.607 3.665c0.204-0.39 0.506-0.718 0.904-0.985 0.399-0.267 0.86-0.444 1.382-0.531z" fill="#413a3a" data-fill-palette-color="accent"></path><path d="M86.064 114.685c-0.706 0.335-1.411 0.478-2.115 0.431-0.71-0.045-1.361-0.275-1.954-0.69-0.587-0.418-1.057-1.001-1.412-1.749v0c-0.355-0.748-0.502-1.484-0.443-2.209 0.06-0.725 0.3-1.377 0.721-1.958 0.421-0.581 0.985-1.038 1.691-1.373v0c0.7-0.332 1.408-0.477 2.125-0.435 0.716 0.042 1.373 0.269 1.972 0.681 0.599 0.413 1.075 0.993 1.43 1.741v0c0.355 0.748 0.499 1.486 0.433 2.213-0.072 0.73-0.321 1.387-0.748 1.971-0.427 0.584-0.994 1.043-1.7 1.377zM85.303 113.078c0.329-0.156 0.602-0.384 0.818-0.684 0.223-0.303 0.344-0.658 0.365-1.064 0.02-0.405-0.08-0.842-0.302-1.308v0c-0.329-0.694-0.764-1.14-1.305-1.338-0.535-0.201-1.066-0.176-1.592 0.073v0c-0.527 0.25-0.882 0.645-1.065 1.186-0.177 0.538-0.101 1.155 0.228 1.849v0c0.329 0.694 0.755 1.145 1.278 1.351 0.523 0.207 1.048 0.185 1.575-0.065z" fill="#413a3a" data-fill-palette-color="accent"></path><path d="M95.401 98.523l1.568-1.33 5.219 6.15-1.567 1.331-0.663-0.78c0.025 0.439-0.057 0.869-0.246 1.29-0.195 0.426-0.481 0.799-0.86 1.121v0c-0.48 0.407-0.99 0.666-1.53 0.777-0.545 0.115-1.09 0.061-1.636-0.162-0.546-0.214-1.053-0.596-1.52-1.147v0l-3.06-3.605 1.553-1.318 2.873 3.386c0.416 0.49 0.856 0.763 1.322 0.82 0.47 0.053 0.915-0.099 1.334-0.455v0c0.429-0.364 0.656-0.783 0.68-1.255 0.02-0.468-0.179-0.947-0.594-1.437v0z" fill="#413a3a" data-fill-palette-color="accent"></path><path d="M109.518 94.388c-0.376 0.545-0.81 0.966-1.303 1.262-0.493 0.296-0.992 0.454-1.498 0.476-0.511 0.018-0.978-0.098-1.4-0.349v0l1.167-1.694c0.273 0.14 0.57 0.159 0.889 0.058 0.319-0.102 0.592-0.316 0.817-0.644v0c0.222-0.322 0.332-0.616 0.33-0.882-0.007-0.27-0.111-0.475-0.313-0.614v0c-0.213-0.146-0.449-0.148-0.708-0.005-0.263 0.149-0.623 0.42-1.079 0.813v0c-0.458 0.408-0.861 0.726-1.21 0.952-0.343 0.23-0.725 0.369-1.145 0.418-0.425 0.045-0.861-0.086-1.308-0.394v0c-0.365-0.252-0.628-0.589-0.787-1.012-0.159-0.423-0.191-0.891-0.094-1.405 0.1-0.518 0.334-1.045 0.701-1.579v0c0.545-0.791 1.177-1.288 1.897-1.493 0.721-0.195 1.434-0.086 2.138 0.327v0l-1.104 1.604c-0.281-0.153-0.568-0.186-0.861-0.098-0.288 0.091-0.545 0.3-0.77 0.628v0c-0.207 0.3-0.312 0.569-0.315 0.808 0.002 0.243 0.101 0.431 0.297 0.566v0c0.224 0.154 0.472 0.161 0.747 0.02 0.269-0.145 0.624-0.41 1.067-0.797v0c0.451-0.397 0.846-0.708 1.185-0.933 0.345-0.221 0.73-0.354 1.155-0.399 0.425-0.045 0.858 0.08 1.298 0.375v0c0.387 0.267 0.66 0.607 0.817 1.021 0.159 0.423 0.189 0.894 0.089 1.412-0.101 0.509-0.334 1.028-0.699 1.558z" fill="#413a3a" data-fill-palette-color="accent"></path><path d="M113.391 75.933c0.274 0.1 0.516 0.209 0.726 0.327v0l-2.017 5.546c0.566 0.149 1.062 0.112 1.489-0.114 0.433-0.223 0.74-0.58 0.919-1.072v0c0.26-0.716 0.14-1.334-0.361-1.854v0l0.75-2.063c0.649 0.483 1.098 1.118 1.347 1.906 0.24 0.792 0.196 1.64-0.132 2.542v0c-0.265 0.728-0.666 1.326-1.202 1.793-0.534 0.461-1.156 0.746-1.865 0.855-0.709 0.109-1.453 0.021-2.23-0.262v0c-0.784-0.285-1.413-0.697-1.887-1.236-0.482-0.535-0.778-1.146-0.887-1.834-0.107-0.694-0.024-1.415 0.247-2.162v0c0.263-0.722 0.653-1.31 1.17-1.763 0.519-0.459 1.119-0.742 1.799-0.846 0.688-0.109 1.399-0.03 2.134 0.237zM110.818 81.319l1.308-3.595c-0.494-0.173-0.954-0.139-1.379 0.101-0.423 0.234-0.727 0.603-0.91 1.107v0c-0.172 0.473-0.171 0.925 0.004 1.354 0.169 0.428 0.494 0.772 0.977 1.033z" fill="#413a3a" data-fill-palette-color="accent"></path><path d="M1.308 61.213c0-2.144 1.738-3.882 3.882-3.883 2.144 0 3.882 1.738 3.882 3.883 0 2.144-1.738 3.882-3.882 3.882-2.144 0-3.882-1.738-3.882-3.882z" fill="#413a3a" data-fill-palette-color="accent"></path><path d="M111.597 61.213c0-2.144 1.738-3.882 3.883-3.883 2.144 0 3.882 1.738 3.882 3.883 0 2.144-1.738 3.882-3.882 3.882-2.144 0-3.882-1.738-3.883-3.882z" fill="#413a3a" data-fill-palette-color="accent"></path></g><g id="text-1"></g></svg></g></svg></g></svg></g><defs></defs></svg><rect width="395.52" height="87.87059269896015" fill="none" stroke="none" visibility="hidden"></rect></g></svg></g></svg>