<svg width="24" height="21" viewBox="0 0 24 21" fill="none" xmlns="http://www.w3.org/2000/svg">
<path d="M6.3375 4.00313L5.11406 7.5H18.8859L17.6625 4.00313C17.4516 3.40313 16.8844 3 16.2469 3H7.75312C7.11562 3 6.54844 3.40313 6.3375 4.00313ZM1.85625 7.725L3.50625 3.01406C4.13906 1.20938 5.84062 0 7.75312 0H16.2469C18.1594 0 19.8609 1.20938 20.4938 3.01406L22.1437 7.725C23.2312 8.175 24 9.24844 24 10.5V19.5C24 20.3297 23.3297 21 22.5 21H21C20.1703 21 19.5 20.3297 19.5 19.5V17.25H4.5V19.5C4.5 20.3297 3.82969 21 3 21H1.5C0.670312 21 0 20.3297 0 19.5V10.5C0 9.24844 0.76875 8.175 1.85625 7.725ZM6 12C6 11.6022 5.84196 11.2206 5.56066 10.9393C5.27936 10.658 4.89782 10.5 4.5 10.5C4.10218 10.5 3.72064 10.658 3.43934 10.9393C3.15804 11.2206 3 11.6022 3 12C3 12.3978 3.15804 12.7794 3.43934 13.0607C3.72064 13.342 4.10218 13.5 4.5 13.5C4.89782 13.5 5.27936 13.342 5.56066 13.0607C5.84196 12.7794 6 12.3978 6 12ZM19.5 13.5C19.8978 13.5 20.2794 13.342 20.5607 13.0607C20.842 12.7794 21 12.3978 21 12C21 11.6022 20.842 11.2206 20.5607 10.9393C20.2794 10.658 19.8978 10.5 19.5 10.5C19.1022 10.5 18.7206 10.658 18.4393 10.9393C18.158 11.2206 18 11.6022 18 12C18 12.3978 18.158 12.7794 18.4393 13.0607C18.7206 13.342 19.1022 13.5 19.5 13.5Z" fill="#323346"/>
</svg>
