<svg width="24" height="28" viewBox="0 0 24 28" fill="none" xmlns="http://www.w3.org/2000/svg">
<path d="M4.95167 20.1413C3.64748 20.1413 2.5867 19.6648 1.79127 18.7187C0.995831 17.7726 0.473809 16.3686 0.169824 14.3259C-0.277789 11.3155 0.166363 8.77819 1.42037 7.18172C2.1587 6.24146 3.12776 5.69783 4.22257 5.61034C5.1599 5.53451 6.561 5.9189 7.91422 8.17682C8.76157 9.59072 9.40588 11.4689 9.68218 13.3296C10.0162 15.5759 9.76755 17.2295 8.92193 18.3838C8.25051 19.3008 7.218 19.8689 5.85266 20.0754C5.55434 20.1197 5.25319 20.1417 4.95167 20.1413ZM7.21108 28C6.4491 28 5.67673 27.7533 4.98109 27.2791C3.97726 26.5912 3.28243 25.5306 3.04758 24.3276C2.88319 23.4725 2.98183 22.793 3.34868 22.2487C3.94454 21.3651 5.01397 21.1662 6.14569 20.955C6.26509 20.9328 6.38622 20.9107 6.50909 20.8868C6.76981 20.8366 7.0363 20.7701 7.29471 20.7054C8.26262 20.4639 9.26398 20.2136 10.0906 20.8074C10.6437 21.2041 10.9558 21.8784 11.0492 22.8676C11.1554 24.0091 10.9131 25.1483 10.3669 26.0757C9.77908 27.0737 8.8977 27.7334 7.88653 27.9341C7.66401 27.978 7.4378 28.0001 7.21108 28ZM19.0457 14.5417C18.7445 14.5407 18.4437 14.5173 18.1459 14.4717C16.7811 14.2676 15.7486 13.6988 15.0772 12.7802C14.2316 11.6258 13.9812 9.97278 14.3169 7.72594C14.5932 5.86348 15.2358 3.98703 16.0791 2.57838C17.4254 0.328626 18.8282 -0.0615958 19.7708 0.0072327C20.8621 0.087727 21.8294 0.623772 22.5689 1.55879C23.8316 3.15526 24.2792 5.70016 23.8299 8.72395C23.5259 10.7655 23.0108 12.1625 22.2084 13.1167C21.4061 14.071 20.3499 14.5417 19.0457 14.5417ZM16.7863 22.4004C16.5602 22.4004 16.3345 22.3783 16.1126 22.3345C15.0997 22.1338 14.2183 21.4741 13.6322 20.4761C13.086 19.5487 12.8437 18.4095 12.9499 17.268C13.0422 16.2764 13.3536 15.6045 13.9085 15.2072C14.7351 14.614 15.7365 14.8637 16.7044 15.1057C16.9628 15.1699 17.2293 15.2364 17.49 15.2871L17.8528 15.3554C18.9851 15.566 20.0546 15.7637 20.6504 16.6486C21.0173 17.1928 21.1159 17.8735 20.9515 18.7274C20.7169 19.9306 20.022 20.9915 19.018 21.6794C18.3183 22.1542 17.546 22.4004 16.7863 22.4004Z" fill="#323346"/>
</svg>
