<svg width="24" height="24" viewBox="0 0 24 24" fill="none" xmlns="http://www.w3.org/2000/svg">
<path opacity="0.4" d="M1.53809 3.61523C1.53809 2.51066 2.43352 1.61523 3.53809 1.61523H8.46142C9.56599 1.61523 10.4614 2.51066 10.4614 3.61523V8.53857C10.4614 9.64314 9.56599 10.5386 8.46142 10.5386H3.53809C2.43352 10.5386 1.53809 9.64314 1.53809 8.53857V3.61523Z" fill="#1B4FA0"/>
<path opacity="0.4" d="M13.4614 15.5391C13.4614 14.4345 14.3569 13.5391 15.4614 13.5391H20.3848C21.4893 13.5391 22.3848 14.4345 22.3848 15.5391V20.4624C22.3848 21.567 21.4893 22.4624 20.3848 22.4624H15.4614C14.3569 22.4624 13.4614 21.567 13.4614 20.4624V15.5391Z" fill="#1B4FA0"/>
<circle cx="17.9231" cy="6.0769" r="4.46166" fill="#1B4FA0"/>
<circle cx="5.99975" cy="18.0007" r="4.46166" fill="#1B4FA0"/>
</svg>
