<svg width="24" height="22" viewBox="0 0 24 22" fill="none" xmlns="http://www.w3.org/2000/svg">
<path opacity="0.4" d="M2 5.50065C2 3.47561 3.79086 1.83398 6 1.83398H18C20.2091 1.83398 22 3.47561 22 5.50065V13.7507C22 15.7757 20.2091 17.4173 18 17.4173H6C3.79086 17.4173 2 15.7757 2 13.7507V5.50065Z" fill="#1B4FA0"/>
<path opacity="0.4" fill-rule="evenodd" clip-rule="evenodd" d="M12 15.8125C12.4142 15.8125 12.75 16.1203 12.75 16.5V19.4792H15C15.4142 19.4792 15.75 19.787 15.75 20.1667C15.75 20.5464 15.4142 20.8542 15 20.8542H9C8.58579 20.8542 8.25 20.5464 8.25 20.1667C8.25 19.787 8.58579 19.4792 9 19.4792H11.25V16.5C11.25 16.1203 11.5858 15.8125 12 15.8125Z" fill="#1B4FA0"/>
<path fill-rule="evenodd" clip-rule="evenodd" d="M6.25 6.41797C6.25 6.03827 6.58579 5.73047 7 5.73047H12C12.4142 5.73047 12.75 6.03827 12.75 6.41797C12.75 6.79766 12.4142 7.10547 12 7.10547H7C6.58579 7.10547 6.25 6.79766 6.25 6.41797Z" fill="#1B4FA0"/>
<path fill-rule="evenodd" clip-rule="evenodd" d="M6.25 10.084C6.25 9.70429 6.58579 9.39648 7 9.39648H17C17.4142 9.39648 17.75 9.70429 17.75 10.084C17.75 10.4637 17.4142 10.7715 17 10.7715H7C6.58579 10.7715 6.25 10.4637 6.25 10.084Z" fill="#1B4FA0"/>
<path d="M22 13.75H2C2 15.775 3.64162 17.4167 5.66666 17.4167H18.3333C20.3584 17.4167 22 15.775 22 13.75Z" fill="#1B4FA0"/>
</svg>
