<svg width="24" height="24" viewBox="0 0 24 24" fill="none" xmlns="http://www.w3.org/2000/svg">
<path opacity="0.4" d="M22.652 7.9221C21.7782 7.04465 20.6037 6.5318 19.3662 6.48731C19.297 6.49354 19.2273 6.49354 19.1581 6.48731C18.5108 6.48608 17.8697 6.61322 17.2719 6.86138C16.674 7.10954 16.1313 7.47379 15.6752 7.93305C15.5728 8.03456 15.4515 8.11487 15.318 8.16938C15.1846 8.22388 15.0417 8.25151 14.8976 8.25068C14.6102 8.24947 14.3349 8.1354 14.1309 7.93305C13.9269 7.72784 13.8124 7.45025 13.8124 7.16089C13.8124 6.87154 13.9269 6.59395 14.1309 6.38873C15.2595 5.22064 16.7567 4.47786 18.3695 4.28583C17.6606 3.2677 16.7152 2.43681 15.6144 1.8645C14.5137 1.29218 13.2905 0.995548 12.0499 1.00005C10.8111 0.997321 9.5901 1.29481 8.49141 1.86704C7.39271 2.43928 6.44904 3.26922 5.74117 4.28583C4.24304 4.36008 2.82601 4.98857 1.76537 6.0492C0.922507 6.89167 0.348461 7.96522 0.11586 9.13401C-0.11674 10.3028 0.00255732 11.5143 0.45866 12.6153C0.914762 13.7163 1.68717 14.6572 2.67817 15.3191C3.66917 15.981 4.83423 16.3341 6.02594 16.3337H19.1691C20.1432 16.3328 21.0953 16.0433 21.905 15.5017C22.7147 14.9601 23.3458 14.1906 23.7185 13.2906C24.0912 12.3905 24.1888 11.4002 23.9989 10.4447C23.8091 9.48919 23.3404 8.61137 22.652 7.9221Z" fill="#1B4FA0"/>
<g filter="url(#filter0_f_480_605)">
<path d="M15.4616 11.3495L6.22391 17.4522C5.76484 17.7554 5.98029 18.4684 6.53089 18.4684H8.60373C9.01914 18.4684 9.2867 18.9049 9.09941 19.2741L7.1012 23.1901C6.8421 23.6981 7.4279 24.2175 7.90386 23.9031L17.1415 17.8003C17.6006 17.4972 17.3851 16.7841 16.8345 16.7841H14.7617C14.3463 16.7841 14.0787 16.3476 14.266 15.9785L16.2642 12.0625C16.5233 11.5544 15.9375 11.0351 15.4616 11.3495Z" fill="url(#paint0_linear_480_605)"/>
</g>
<path d="M15.4616 11.3495L6.22391 17.4522C5.76484 17.7554 5.98029 18.4684 6.53089 18.4684H8.60373C9.01914 18.4684 9.2867 18.9049 9.09941 19.2741L7.1012 23.1901C6.8421 23.6981 7.4279 24.2175 7.90386 23.9031L17.1415 17.8003C17.6006 17.4972 17.3851 16.7841 16.8345 16.7841H14.7617C14.3463 16.7841 14.0787 16.3476 14.266 15.9785L16.2642 12.0625C16.5233 11.5544 15.9375 11.0351 15.4616 11.3495Z" fill="#1B4FA0"/>
<defs>
<filter id="filter0_f_480_605" x="-82.0259" y="-76.7461" width="187.417" height="188.744" filterUnits="userSpaceOnUse" color-interpolation-filters="sRGB">
<feFlood flood-opacity="0" result="BackgroundImageFix"/>
<feBlend mode="normal" in="SourceGraphic" in2="BackgroundImageFix" result="shape"/>
<feGaussianBlur stdDeviation="44" result="effect1_foregroundBlur_480_605"/>
</filter>
<linearGradient id="paint0_linear_480_605" x1="8.34322" y1="23.6911" x2="15.692" y2="10.2583" gradientUnits="userSpaceOnUse">
<stop stop-color="#FFDC4A"/>
<stop offset="1" stop-color="#F37322"/>
</linearGradient>
</defs>
</svg>
