<svg width="24" height="24" viewBox="0 0 24 24" fill="none" xmlns="http://www.w3.org/2000/svg">
<circle opacity="0.4" cx="12" cy="12" r="12" fill="#1A4F9F"/>
<path d="M12.121 6.54828C10.792 6.52105 9.49109 6.89118 8.42588 7.59957C7.36067 8.30796 6.59258 9.31378 6.24422 10.4565C6.20938 10.4633 6.27667 10.4454 6.24422 10.4565C3.77809 11.9024 3.7485 15.053 6.08767 16.6587L6.09006 16.6545L6.08528 16.6723C6.83297 17.1741 7.7446 17.4439 8.68076 17.4405H11.9721L11.9922 17.4558H15.2959C19.5519 17.4869 21.262 12.58 17.7372 10.4565C17.4346 9.45897 16.8108 8.56219 15.9426 7.87681L15.9154 7.90104L15.9178 7.87213C14.8671 7.0463 13.5229 6.57732 12.122 6.54785L12.121 6.54828ZM11.8924 8.89967C12.6828 8.87543 13.4956 9.10798 14.1099 9.55054C14.4892 9.83223 14.7927 10.1862 14.9979 10.5863C15.2031 10.9865 15.3048 11.4226 15.2954 11.8624V12.157C17.5425 12.117 17.5425 15.1397 15.2954 15.0998H11.9917L11.9869 15.104V15.0819H8.68076C8.44689 15.0819 8.21588 15.0377 8.00206 14.9514C6.9506 14.5284 6.69955 13.2972 7.51475 12.569C8.33282 11.8428 9.71217 12.0665 10.1895 13.003L12.1062 11.2957C11.4691 10.556 10.5508 10.049 9.52364 9.86981C9.53605 9.86556 9.54846 9.85663 9.55848 9.85876C9.85584 9.56748 10.216 9.3325 10.6174 9.1678C11.0189 9.0031 11.4535 8.91205 11.8953 8.90009L11.8924 8.89967Z" fill="#1B4FA0"/>
</svg>
