<svg width="23" height="21" viewBox="0 0 23 21" fill="none" xmlns="http://www.w3.org/2000/svg">
<path opacity="0.4" d="M5.8335 2.33333V12.8333C5.8335 14.122 6.87816 15.1667 8.16683 15.1667H21.0002C22.2888 15.1667 23.3335 14.122 23.3335 12.8333V2.33333C23.3335 1.04467 22.2888 0 21.0002 0H8.16683C6.87817 0 5.8335 1.04467 5.8335 2.33333Z" fill="#1B4FA0"/>
<path d="M0 17.4993C0 16.2107 1.04467 15.166 2.33333 15.166H2.5335C3.15234 15.166 3.74583 15.4118 4.18342 15.8494V15.8494C5.09464 16.7607 6.57203 16.7607 7.48325 15.8494V15.8494C7.92083 15.4118 8.51433 15.166 9.13317 15.166H9.33333C10.622 15.166 11.6667 16.2107 11.6667 17.4993V18.666C11.6667 19.9547 10.622 20.9993 9.33333 20.9993H2.33333C1.04467 20.9993 0 19.9547 0 18.666V17.4993Z" fill="#1B4FA0"/>
<path d="M8.74984 11.0827C8.74984 12.6935 7.444 13.9993 5.83317 13.9993C4.22234 13.9993 2.9165 12.6935 2.9165 11.0827C2.9165 9.47185 4.22234 8.16602 5.83317 8.16602C7.444 8.16602 8.74984 9.47185 8.74984 11.0827Z" fill="#1B4FA0"/>
<path fill-rule="evenodd" clip-rule="evenodd" d="M9.625 5.25C9.625 4.76675 10.0168 4.375 10.5 4.375L18.6667 4.375C19.1499 4.375 19.5417 4.76675 19.5417 5.25C19.5417 5.73325 19.1499 6.125 18.6667 6.125L10.5 6.125C10.0168 6.125 9.625 5.73325 9.625 5.25Z" fill="#1B4FA0"/>
<path fill-rule="evenodd" clip-rule="evenodd" d="M13.125 9.91602C13.125 9.43277 13.5168 9.04102 14 9.04102L18.6667 9.04102C19.1499 9.04102 19.5417 9.43277 19.5417 9.91602C19.5417 10.3993 19.1499 10.791 18.6667 10.791L14 10.791C13.5168 10.791 13.125 10.3993 13.125 9.91602Z" fill="#1B4FA0"/>
</svg>
