<svg width="24" height="18" viewBox="0 0 24 18" fill="none" xmlns="http://www.w3.org/2000/svg">
<path opacity="0.4" fill-rule="evenodd" clip-rule="evenodd" d="M0 12.4192C0 11.9407 0.38792 11.5527 0.866443 11.5527H6.64273C7.12125 11.5527 7.50917 11.9407 7.50917 12.4192C7.50917 12.8977 7.12125 13.2856 6.64273 13.2856H0.866443C0.38792 13.2856 0 12.8977 0 12.4192Z" fill="#1B4FA0"/>
<path opacity="0.4" fill-rule="evenodd" clip-rule="evenodd" d="M0 6.64183C0 6.16331 0.38792 5.77539 0.866443 5.77539H6.64273C7.12125 5.77539 7.50917 6.16331 7.50917 6.64183C7.50917 7.12036 7.12125 7.50828 6.64273 7.50828H0.866443C0.38792 7.50828 0 7.12036 0 6.64183Z" fill="#1B4FA0"/>
<path opacity="0.4" fill-rule="evenodd" clip-rule="evenodd" d="M0 0.866443C0 0.38792 0.38792 0 0.866443 0H15.8848C16.3633 0 16.7512 0.38792 16.7512 0.866443C16.7512 1.34497 16.3633 1.73289 15.8848 1.73289H0.866443C0.38792 1.73289 0 1.34497 0 0.866443Z" fill="#1B4FA0"/>
<circle opacity="0.4" cx="16.8847" cy="11.0683" r="6.93154" fill="#1A4F9F"/>
<path d="M17.0357 7.64532C16.2728 7.63001 15.526 7.83822 14.9146 8.23672C14.3031 8.63522 13.8622 9.20105 13.6622 9.84387C13.6422 9.8477 13.6809 9.83766 13.6622 9.84387C12.2466 10.6572 12.2296 12.4296 13.5724 13.3329L13.5737 13.3305L13.571 13.3406C14.0002 13.6228 14.5235 13.7746 15.0609 13.7727H16.9502L16.9617 13.7813H18.8582C21.3012 13.7988 22.2828 11.0385 20.2595 9.84387C20.0858 9.28272 19.7277 8.77824 19.2294 8.39268L19.2138 8.40631L19.2151 8.39005C18.612 7.92548 17.8404 7.66166 17.0362 7.64508L17.0357 7.64532ZM16.9044 8.96809C17.3581 8.95446 17.8247 9.08527 18.1773 9.33423C18.3951 9.4927 18.5693 9.69183 18.6871 9.91693C18.8049 10.142 18.8632 10.3873 18.8579 10.6348V10.8005C20.1478 10.778 20.1478 12.4784 18.8579 12.4559H16.9614L16.9587 12.4583V12.4459H15.0609C14.9266 12.4459 14.794 12.421 14.6713 12.3725C14.0677 12.1345 13.9236 11.4419 14.3915 11.0322C14.8611 10.6238 15.6529 10.7496 15.9269 11.2764L17.0272 10.316C16.6615 9.89986 16.1343 9.61463 15.5447 9.51384C15.5518 9.51145 15.559 9.50643 15.5647 9.50762C15.7354 9.34377 15.9421 9.21157 16.1726 9.11892C16.403 9.02627 16.6525 8.97506 16.9061 8.96833L16.9044 8.96809Z" fill="#1B4FA0"/>
</svg>
