<svg width="24" height="24" viewBox="0 0 24 24" fill="none" xmlns="http://www.w3.org/2000/svg">
<path d="M14.9804 22.3385L12.064 13.5891C11.7498 12.6465 12.6465 11.7498 13.5891 12.064L22.3385 14.9804C23.4378 15.3469 23.4378 16.9017 22.3385 17.2681L19.1077 18.3451C18.7476 18.4651 18.4651 18.7476 18.3451 19.1077L17.2681 22.3385C16.9017 23.4378 15.3469 23.4378 14.9804 22.3385Z" fill="#1B4FA0"/>
<path opacity="0.4" fill-rule="evenodd" clip-rule="evenodd" d="M12.0003 7.25648C9.38007 7.25648 7.25599 9.38056 7.25599 12.0007C7.25599 13.9917 8.4826 15.6981 10.2245 16.4017C10.6532 16.5749 10.8603 17.0629 10.6872 17.4916C10.514 17.9203 10.026 18.1275 9.5973 17.9543C7.24427 17.0038 5.58154 14.6974 5.58154 12.0007C5.58154 8.45578 8.4553 5.58203 12.0003 5.58203C14.6969 5.58203 17.0033 7.24476 17.9538 9.59779C18.127 10.0265 17.9198 10.5145 17.4911 10.6877C17.0624 10.8608 16.5744 10.6537 16.4012 10.225C15.6976 8.48308 13.9912 7.25648 12.0003 7.25648Z" fill="#1B4FA0"/>
<path opacity="0.4" fill-rule="evenodd" clip-rule="evenodd" d="M12.0002 1.67445C6.29744 1.67445 1.67445 6.29744 1.67445 12.0002C1.67445 17.6738 6.2504 22.2787 11.9129 22.3256C12.3752 22.3294 12.7469 22.7073 12.7431 23.1697C12.7393 23.6321 12.3614 24.0038 11.899 24C5.31798 23.9455 0 18.5939 0 12.0002C0 5.37267 5.37267 0 12.0002 0C18.5939 0 23.9455 5.31798 24 11.899C24.0038 12.3614 23.6321 12.7393 23.1697 12.7431C22.7073 12.747 22.3294 12.3752 22.3256 11.9129C22.2787 6.2504 17.6738 1.67445 12.0002 1.67445Z" fill="#1B4FA0"/>
</svg>
