<svg width="24" height="24" viewBox="0 0 24 24" fill="none" xmlns="http://www.w3.org/2000/svg">
<path fill-rule="evenodd" clip-rule="evenodd" d="M9.76744 0C10.2298 0 10.6047 0.374831 10.6047 0.837209V3.06977H8.93023V0.837209C8.93023 0.374831 9.30506 0 9.76744 0ZM14.2326 0C14.6949 0 15.0698 0.374831 15.0698 0.837209V3.06977H13.3953V0.837209C13.3953 0.374831 13.7702 0 14.2326 0ZM0 9.76744C0 9.30506 0.374831 8.93023 0.837209 8.93023H3.06977V10.6047H0.837209C0.374831 10.6047 0 10.2298 0 9.76744ZM20.9302 8.93023H23.1628C23.6252 8.93023 24 9.30506 24 9.76744C24 10.2298 23.6252 10.6047 23.1628 10.6047H20.9302V8.93023ZM0 14.2326C0 13.7702 0.374831 13.3953 0.837209 13.3953H3.06977V15.0698H0.837209C0.374831 15.0698 0 14.6949 0 14.2326ZM20.9302 13.3953H23.1628C23.6252 13.3953 24 13.7702 24 14.2326C24 14.6949 23.6252 15.0698 23.1628 15.0698H20.9302V13.3953ZM10.6047 20.9302V23.1628C10.6047 23.6252 10.2298 24 9.76744 24C9.30506 24 8.93023 23.6252 8.93023 23.1628V20.9302H10.6047ZM15.0698 20.9302V23.1628C15.0698 23.6252 14.6949 24 14.2326 24C13.7702 24 13.3953 23.6252 13.3953 23.1628V20.9302H15.0698Z" fill="#1B4FA0"/>
<path opacity="0.4" d="M3.06982 7.53543C3.06982 5.06941 5.06893 3.07031 7.53494 3.07031H16.4652C18.9312 3.07031 20.9303 5.06941 20.9303 7.53543V16.4657C20.9303 18.9317 18.9312 20.9308 16.4652 20.9308H7.53494C5.06893 20.9308 3.06982 18.9317 3.06982 16.4657V7.53543Z" fill="#1B4FA0"/>
<rect x="8.65137" y="8.65039" width="6.69767" height="6.69767" rx="2" fill="#1B4FA0"/>
</svg>
