<svg width="24" height="24" viewBox="0 0 24 24" fill="none" xmlns="http://www.w3.org/2000/svg">
<path opacity="0.4" d="M7 6.68958C7 5.20416 8.20416 4 9.68958 4H16.3104C17.7958 4 19 5.20416 19 6.68958V13.3104C19 14.7958 17.7958 16 16.3104 16H9.68958C8.20416 16 7 14.7958 7 13.3104V6.68958Z" fill="#1B4FA0"/>
<rect x="6" y="6" width="12" height="12" rx="3" stroke="#1B4FA0" stroke-width="1.5"/>
<path d="M12 2V3" stroke="#1B4FA0" stroke-width="1.5" stroke-linecap="round" stroke-linejoin="round"/>
<path d="M12 21V22" stroke="#1B4FA0" stroke-width="1.5" stroke-linecap="round" stroke-linejoin="round"/>
<path d="M20.0713 3.92969L19.3642 4.63679" stroke="#1B4FA0" stroke-width="1.5" stroke-linecap="round" stroke-linejoin="round"/>
<path d="M4.63574 19.3633L3.92864 20.0704" stroke="#1B4FA0" stroke-width="1.5" stroke-linecap="round" stroke-linejoin="round"/>
<path d="M22 12L21 12" stroke="#1B4FA0" stroke-width="1.5" stroke-linecap="round" stroke-linejoin="round"/>
<path d="M13 9L11 9" stroke="#1B4FA0" stroke-width="1.5" stroke-linecap="round" stroke-linejoin="round"/>
<path d="M3 12L2 12" stroke="#1B4FA0" stroke-width="1.5" stroke-linecap="round" stroke-linejoin="round"/>
<path d="M20.0713 20.0703L19.3642 19.3632" stroke="#1B4FA0" stroke-width="1.5" stroke-linecap="round" stroke-linejoin="round"/>
<path d="M4.63574 4.63672L3.92864 3.92961" stroke="#1B4FA0" stroke-width="1.5" stroke-linecap="round" stroke-linejoin="round"/>
</svg>
