<svg width="25" height="24" viewBox="0 0 25 24" fill="none" xmlns="http://www.w3.org/2000/svg">
<path opacity="0.4" d="M0.34565 10.819L5.03064 0.771127C5.47885 -0.190167 6.85032 -0.176902 7.27986 0.792881L11.7696 10.9295C12.0586 11.5819 12.0514 12.3275 11.7499 12.9742L7.06488 23.0221C6.61666 23.9834 5.24519 23.9701 4.81565 23.0003L0.325874 12.8638C0.0368824 12.2113 0.0440928 11.4657 0.34565 10.819Z" fill="#1B4FA0"/>
<path d="M6.52192 10.8795L11.2069 0.831673C11.6551 -0.129621 13.0266 -0.116355 13.4561 0.853428L17.9459 10.99C18.2349 11.6425 18.2277 12.388 17.9261 13.0348L13.2411 23.0827C12.7929 24.0439 11.4215 24.0307 10.9919 23.0609L6.50214 12.9243C6.21315 12.2718 6.22036 11.5263 6.52192 10.8795Z" fill="#1B4FA0"/>
<path opacity="0.4" d="M12.6992 10.942L17.3842 0.894173C17.8324 -0.0671206 19.2038 -0.0538551 19.6334 0.915928L24.1232 11.0525C24.4121 11.705 24.4049 12.4505 24.1034 13.0973L19.4184 23.1452C18.9702 24.1064 17.5987 24.0932 17.1692 23.1234L12.6794 12.9868C12.3904 12.3343 12.3976 11.5888 12.6992 10.942Z" fill="#1B4FA0"/>
</svg>
