<svg width="24" height="25" viewBox="0 0 24 25" fill="none" xmlns="http://www.w3.org/2000/svg">
<path d="M12.5192 1.03964C12.5192 0.465465 12.0539 0 11.4799 0C10.9059 0 10.4406 0.465465 10.4406 1.03964V2.32877C10.4406 2.90295 10.9059 3.36841 11.4799 3.36841C12.0539 3.36841 12.5192 2.90295 12.5192 2.32877V1.03964Z" fill="#1B4FA0"/>
<path d="M4.8737 3.01059C4.44565 2.62807 3.78867 2.66512 3.40629 3.09333C3.02392 3.52154 3.06095 4.17877 3.48901 4.56128L4.4889 5.45479C4.91696 5.83731 5.57394 5.80026 5.95631 5.37205C6.33869 4.94384 6.30165 4.28661 5.8736 3.9041L4.8737 3.01059Z" fill="#1B4FA0"/>
<path d="M0 11.1526C0 10.5785 0.465295 10.113 1.03926 10.113H2.24262C2.81659 10.113 3.28188 10.5785 3.28188 11.1526C3.28188 11.7268 2.81659 12.1923 2.24262 12.1923H1.03926C0.465295 12.1923 0 11.7268 0 11.1526Z" fill="#1B4FA0"/>
<path d="M11.4407 4.45825C7.93031 4.45972 4.34989 7.28118 4.34989 11.4516C4.34989 14.0067 5.92887 15.8483 7.12536 16.885C7.86269 17.5238 8.30435 18.3151 8.30435 19.0743V19.7734C8.30435 19.9457 8.44394 20.0853 8.61613 20.0853H11.4407V4.45825Z" fill="#1B4FA0"/>
<path d="M8.61613 21.5223C8.44394 21.5223 8.3027 21.6625 8.31852 21.834C8.43927 23.1435 9.31747 24.0265 10.3829 24.0265H12.6328C13.697 24.0265 14.5743 23.1237 14.6968 21.834C14.713 21.6625 14.5718 21.5223 14.3996 21.5223H8.61613Z" fill="#1B4FA0"/>
<path d="M13.0117 19.9687V4.48345C13.7662 4.07029 15.1662 3.72355 15.8117 4.88494C15.4557 5.06132 15.142 5.30068 14.8859 5.58921C14.0684 6.50986 13.8841 7.891 14.74 9.0977C14.9325 9.36914 15.3086 9.43311 15.5801 9.24059C15.8515 9.04806 15.9155 8.67195 15.723 8.40051C15.206 7.6716 15.325 6.90971 15.787 6.38933C15.9318 6.22623 16.1148 6.08312 16.3296 5.97392C17.9609 5.62526 18.9621 7.11446 18.6765 8.33801C20.3524 8.63968 21.3579 9.84632 21.1233 11.4217C21.0138 12.1566 20.5951 12.7752 20.1609 13.2231C19.9925 13.0135 19.8001 12.829 19.5906 12.673C18.6536 11.9752 17.2639 11.8059 16.3281 12.7313C16.0915 12.9653 16.0893 13.3468 16.3233 13.5834C16.5573 13.8201 16.9388 13.8222 17.1755 13.5882C17.5609 13.2071 18.2528 13.1793 18.8708 13.6395C19.1584 13.8537 19.4078 14.1665 19.5462 14.5664C19.6513 15.1778 19.5286 15.9986 18.6765 16.684C19.2072 17.9689 18.3181 19.8126 16.5906 19.6928C16.696 19.4081 16.7515 19.1126 16.7592 18.8201C16.7858 17.8107 16.2124 16.7229 15.0664 16.5176C14.7389 16.4589 14.4258 16.6769 14.3671 17.0045C14.3084 17.332 14.5264 17.6451 14.854 17.7038C15.238 17.7726 15.5707 18.1764 15.5545 18.7883C15.5479 19.0405 15.4765 19.3108 15.3194 19.5605C14.6129 20.4813 13.7972 20.5344 13.0117 19.9687Z" fill="#1B4FA0"/>
</svg>
