<svg width="24" height="24" viewBox="0 0 24 24" fill="none" xmlns="http://www.w3.org/2000/svg">
<path fill-rule="evenodd" clip-rule="evenodd" d="M0 5C0 3.34315 1.34315 2 3 2H19C20.6569 2 22 3.34315 22 5V5.83346C22 6.02722 21.8186 6.16962 21.626 6.14901C21.5199 6.13766 21.4122 6.13184 21.3031 6.13184H14C12.386 6.13184 11.0696 7.40646 11.0027 9.00403H2V19C2 19.5523 2.44772 20 3 20H10.7C10.8657 20 11 20.1343 11 20.3V21C11 21.2416 11 21.4748 11 21.7C11 21.8657 10.8657 22 10.7 22H3C1.34315 22 0 20.6569 0 19V5ZM4.00586 6.56601C4.55814 6.56601 5.00586 6.1183 5.00586 5.56601C5.00586 5.01373 4.55814 4.56601 4.00586 4.56601C3.45357 4.56601 3.00586 5.01373 3.00586 5.56601C3.00586 6.1183 3.45357 6.56601 4.00586 6.56601ZM7.00586 6.56601C7.55814 6.56601 8.00586 6.1183 8.00586 5.56601C8.00586 5.01373 7.55814 4.56601 7.00586 4.56601C6.45357 4.56601 6.00586 5.01373 6.00586 5.56601C6.00586 6.1183 6.45357 6.56601 7.00586 6.56601ZM11.0059 5.56601C11.0059 6.1183 10.5581 6.56601 10.0059 6.56601C9.45358 6.56601 9.00586 6.1183 9.00586 5.56601C9.00586 5.01373 9.45358 4.56601 10.0059 4.56601C10.5581 4.56601 11.0059 5.01373 11.0059 5.56601Z" fill="#1B4FA0"/>
<path d="M3.73027 12C3.73027 11.4477 4.17799 11 4.73027 11H9.74881C10.3011 11 10.7488 11.4477 10.7488 12V16.9973C10.7488 17.5496 10.3011 17.9973 9.74881 17.9973H4.73027C4.17799 17.9973 3.73027 17.5496 3.73027 16.9973V12Z" fill="#1B4FA0"/>
<path fill-rule="evenodd" clip-rule="evenodd" d="M12.3789 9.12274C12.3789 8.30109 13.045 7.63501 13.8666 7.63501H21.3053C22.1269 7.63501 22.793 8.30109 22.793 9.12274V22.5123C22.793 23.3339 22.1269 24 21.3053 24H13.8666C13.045 24 12.3789 23.3339 12.3789 22.5123V9.12274ZM15.3544 19.5368C14.9435 19.5368 14.6105 19.8699 14.6105 20.2807C14.6105 20.6915 14.9435 21.0245 15.3544 21.0245H19.8175C20.2284 21.0245 20.5614 20.6915 20.5614 20.2807C20.5614 19.8699 20.2284 19.5368 19.8175 19.5368H15.3544ZM16.4702 8.7508C16.2647 8.7508 16.0982 8.91732 16.0982 9.12274C16.0982 9.32815 16.2647 9.49467 16.4702 9.49467H18.7017C18.9072 9.49467 19.0737 9.32815 19.0737 9.12274C19.0737 8.91732 18.9072 8.7508 18.7017 8.7508H16.4702ZM14.541 12.2219C14.541 11.6696 14.9887 11.2219 15.541 11.2219H19.5439C20.0962 11.2219 20.5439 11.6696 20.5439 12.2219V16.3458C20.5439 16.8981 20.0962 17.3458 19.5439 17.3458H15.541C14.9887 17.3458 14.541 16.8981 14.541 16.3458V12.2219Z" fill="#1B4FA0"/>
</svg>
