<svg width="24" height="23" viewBox="0 0 24 23" fill="none" xmlns="http://www.w3.org/2000/svg">
<path d="M4.97135 6.8418H2.48568C1.11288 6.8418 0 7.95467 0 9.32747V20.513C0 21.8858 1.11288 22.9987 2.48568 22.9987H4.97135C6.34416 22.9987 7.45703 21.8858 7.45703 20.513V9.32747C7.45703 7.95467 6.34416 6.8418 4.97135 6.8418Z" fill="#1B4FA0"/>
<path opacity="0.4" d="M17.2467 23H12.6908C11.7093 23 10.7498 22.7095 9.93314 22.1651L8.01047 20.8833C7.66471 20.6528 7.45703 20.2647 7.45703 19.8492V9.65883C7.45703 9.44254 7.51347 9.23 7.62078 9.04221L12.1405 1.13277C12.3185 0.821192 12.6499 0.628906 13.0087 0.628906H14.0798C16.5614 0.628906 18.0416 3.39467 16.665 5.45951L14.9141 8.08594H21.6732C23.2903 8.08594 24.4768 9.60565 24.0846 11.1745L22.0697 19.2344C21.5164 21.4475 19.5279 23 17.2467 23Z" fill="#1B4FA0"/>
</svg>
