<svg width="24" height="24" viewBox="0 0 24 24" fill="none" xmlns="http://www.w3.org/2000/svg">
<path opacity="0.4" d="M10.718 23.7797L0.717566 19.2341C-0.23919 18.7992 -0.239188 17.4402 0.717568 17.0053L10.718 12.4597C11.3617 12.1671 12.1005 12.1671 12.7442 12.4597L22.7446 17.0053C23.7013 17.4402 23.7013 18.7992 22.7446 19.2341L12.7442 23.7797C12.1005 24.0723 11.3617 24.0723 10.718 23.7797Z" fill="#1B4FA0"/>
<path d="M10.718 17.6606L0.717566 13.115C-0.23919 12.6801 -0.239188 11.3211 0.717568 10.8862L10.718 6.34054C11.3617 6.04795 12.1005 6.04795 12.7442 6.34054L22.7446 10.8862C23.7013 11.3211 23.7013 12.6801 22.7446 13.115L12.7442 17.6606C12.1005 17.9532 11.3617 17.9532 10.718 17.6606Z" fill="#1B4FA0"/>
<path opacity="0.4" d="M10.718 11.5395L0.717566 6.99386C-0.23919 6.55897 -0.239188 5.19998 0.717568 4.76509L10.718 0.219441C11.3617 -0.0731474 12.1005 -0.073147 12.7442 0.219442L22.7446 4.76509C23.7013 5.19998 23.7013 6.55897 22.7446 6.99386L12.7442 11.5395C12.1005 11.8321 11.3617 11.8321 10.718 11.5395Z" fill="#1B4FA0"/>
</svg>
