<svg width="24" height="24" viewBox="0 0 24 24" fill="none" xmlns="http://www.w3.org/2000/svg">
<path opacity="0.4" d="M13.2727 0H10.7273C9.32145 0 8.1818 1.07452 8.1818 2.4C8.1818 3.91682 6.55889 4.88116 5.22667 4.15596L5.09135 4.0823C3.87388 3.41956 2.3171 3.81286 1.61419 4.96076L0.341454 7.03922C-0.361456 8.18712 0.0556824 9.65494 1.27316 10.3177C2.60601 11.0432 2.60601 12.9568 1.27316 13.6823C0.0556804 14.3451 -0.361458 15.8129 0.341452 16.9608L1.61418 19.0392C2.31709 20.1871 3.87388 20.5804 5.09135 19.9177L5.22667 19.844C6.55889 19.1188 8.1818 20.0832 8.1818 21.6C8.1818 22.9255 9.32145 24 10.7273 24H13.2727C14.6786 24 15.8182 22.9255 15.8182 21.6C15.8182 20.0832 17.4411 19.1188 18.7733 19.844L18.9086 19.9177C20.1261 20.5804 21.6829 20.1871 22.3858 19.0392L23.6585 16.9608C24.3615 15.8129 23.9443 14.345 22.7268 13.6823C21.394 12.9568 21.394 11.0432 22.7268 10.3177C23.9443 9.65496 24.3615 8.18714 23.6585 7.03924L22.3858 4.96078C21.6829 3.81288 20.1261 3.41958 18.9086 4.08232L18.7733 4.15597C17.4411 4.88118 15.8182 3.91682 15.8182 2.4C15.8182 1.07452 14.6786 0 13.2727 0Z" fill="#1B4FA0"/>
<circle cx="12" cy="12" r="4" fill="#1B4FA0"/>
</svg>
