<svg width="24" height="22" viewBox="0 0 24 22" fill="none" xmlns="http://www.w3.org/2000/svg">
<path opacity="0.4" d="M7.83008 2.32V11.6C7.83008 12.8813 8.86878 13.92 10.1501 13.92H21.7501C23.0314 13.92 24.0701 12.8813 24.0701 11.6V2.32C24.0701 1.0387 23.0314 0 21.7501 0H10.1501C8.86878 0 7.83008 1.0387 7.83008 2.32Z" fill="#1B4FA0"/>
<path fill-rule="evenodd" clip-rule="evenodd" d="M4.93018 12.1793C4.93018 10.5777 6.22855 9.2793 7.83017 9.2793C9.4318 9.2793 10.7302 10.5777 10.7302 12.1793C10.7302 13.7809 9.4318 15.0793 7.83017 15.0793C6.22855 15.0793 4.93018 13.7809 4.93018 12.1793Z" fill="#1B4FA0"/>
<path fill-rule="evenodd" clip-rule="evenodd" d="M15.1526 13.1301C15.5894 13.3303 15.7812 13.8467 15.581 14.2835C14.8792 15.8148 12.3916 18.5874 7.83016 18.5874C3.9553 18.5874 2.05194 20.5376 1.63247 21.3003C1.40091 21.7213 0.871903 21.8749 0.450892 21.6433C0.0298815 21.4117 -0.123702 20.8827 0.107854 20.4617C0.848383 19.1153 3.35302 16.8474 7.83016 16.8474C11.6207 16.8474 13.5411 14.5581 13.9993 13.5585C14.1995 13.1217 14.7158 12.9299 15.1526 13.1301Z" fill="#1B4FA0"/>
<path fill-rule="evenodd" clip-rule="evenodd" d="M11.6001 4.63953C11.6001 4.15904 11.9896 3.76953 12.4701 3.76953L19.4301 3.76953C19.9106 3.76953 20.3001 4.15904 20.3001 4.63953C20.3001 5.12002 19.9106 5.50953 19.4301 5.50953L12.4701 5.50953C11.9896 5.50953 11.6001 5.12002 11.6001 4.63953Z" fill="#1B4FA0"/>
<path fill-rule="evenodd" clip-rule="evenodd" d="M15.0801 9.28016C15.0801 8.79967 15.4696 8.41016 15.9501 8.41016L19.4301 8.41016C19.9106 8.41016 20.3001 8.79967 20.3001 9.28016C20.3001 9.76064 19.9106 10.1502 19.4301 10.1502L15.9501 10.1502C15.4696 10.1502 15.0801 9.76064 15.0801 9.28016Z" fill="#1B4FA0"/>
</svg>
