<svg width="22" height="24" viewBox="0 0 22 24" fill="none" xmlns="http://www.w3.org/2000/svg">
<path opacity="0.4" d="M4.3999 2.21883V9.47883C4.3999 10.8154 5.38488 11.8988 6.5999 11.8988H19.7999C21.0149 11.8988 21.9999 10.8154 21.9999 9.47883V2.21883C21.9999 0.882299 21.0149 -0.201172 19.7999 -0.201172H6.5999C5.38488 -0.201172 4.3999 0.882299 4.3999 2.21883Z" fill="#1B4FA0"/>
<path fill-rule="evenodd" clip-rule="evenodd" d="M16.9698 7.52277C17.3445 7.80806 17.4379 8.37339 17.1786 8.78547L11.759 16.1866L10.4023 15.1535L15.8219 7.75235C16.0813 7.34027 16.5952 7.23748 16.9698 7.52277Z" fill="#1B4FA0"/>
<ellipse cx="3.3001" cy="8.26961" rx="2.2" ry="2.42" fill="#1B4FA0"/>
<path d="M6.6 15.5284V16.1334L10.1671 14.0765C10.9249 13.546 11.9312 13.8073 12.3934 14.6546C12.8412 15.4756 12.6086 16.54 11.8705 17.0475L7.44069 19.6392C7.17579 19.8213 6.88974 19.9337 6.6 19.9812V22.9984C6.6 23.5507 6.15228 23.9984 5.6 23.9984H0.999999C0.447714 23.9984 0 23.5507 0 22.9984V15.5284C0 13.5236 1.47746 11.8984 3.3 11.8984C5.12254 11.8984 6.6 13.5236 6.6 15.5284Z" fill="#1B4FA0"/>
<path fill-rule="evenodd" clip-rule="evenodd" d="M7.9751 4.63797C7.9751 4.13677 8.34446 3.73047 8.8001 3.73047L17.6001 3.73047C18.0557 3.73047 18.4251 4.13677 18.4251 4.63797C18.4251 5.13917 18.0557 5.54547 17.6001 5.54547L8.8001 5.54547C8.34446 5.54547 7.9751 5.13917 7.9751 4.63797Z" fill="#1B4FA0"/>
<path fill-rule="evenodd" clip-rule="evenodd" d="M7.9751 8.26883C7.9751 7.76763 8.34446 7.36133 8.8001 7.36133L13.2001 7.36133C13.6557 7.36133 14.0251 7.76763 14.0251 8.26883C14.0251 8.77003 13.6557 9.17633 13.2001 9.17633L8.8001 9.17633C8.34446 9.17633 7.9751 8.77003 7.9751 8.26883Z" fill="#1B4FA0"/>
</svg>
