<svg width="48" height="43" viewBox="0 0 48 43" fill="none" xmlns="http://www.w3.org/2000/svg">
<path d="M4.57143 36.2105C3.31429 36.2105 2.23848 35.7677 1.344 34.882C0.449524 33.9964 0.00152381 32.9305 0 31.6842V4.52632C0 3.28158 0.448 2.21639 1.344 1.33074C2.24 0.445087 3.31581 0.00150877 4.57143 0H18.2857L22.8571 4.52632H41.1429C42.4 4.52632 43.4766 4.96989 44.3726 5.85705C45.2686 6.74421 45.7158 7.8094 45.7143 9.05263H29.7143C27.2 9.05263 25.0476 9.93903 23.2571 11.7118C21.4667 13.4846 20.5714 15.6158 20.5714 18.1053C20.5714 19.2746 20.7718 20.3684 21.1726 21.3868C21.5733 22.4053 22.1349 23.3105 22.8571 24.1026V32.4763C22.3619 33.0044 21.9528 33.5792 21.6297 34.2008C21.3067 34.8225 21.0491 35.4923 20.8571 36.2105H4.57143ZM29.7143 43C28.4571 43 27.3813 42.5572 26.4869 41.6715C25.5924 40.7859 25.1444 39.7199 25.1429 38.4737C25.1429 37.6061 25.3524 36.8329 25.7714 36.1539C26.1905 35.475 26.7429 34.9281 27.4286 34.5132V22.0092C26.7429 21.5943 26.1905 21.0572 25.7714 20.3978C25.3524 19.7385 25.1429 18.9743 25.1429 18.1053C25.1429 16.8605 25.5909 15.7953 26.4869 14.9097C27.3829 14.024 28.4587 13.5805 29.7143 13.5789C30.9714 13.5789 32.048 14.0225 32.944 14.9097C33.84 15.7968 34.2872 16.862 34.2857 18.1053C34.2857 18.9728 34.0762 19.737 33.6571 20.3978C33.2381 21.0587 32.6857 21.5958 32 22.0092V28.5158L41.1429 25.5171V22.0092C40.4571 21.5943 39.9048 21.0572 39.4857 20.3978C39.0667 19.7385 38.8571 18.9743 38.8571 18.1053C38.8571 16.8605 39.3051 15.7953 40.2011 14.9097C41.0971 14.024 42.1729 13.5805 43.4286 13.5789C44.6857 13.5789 45.7623 14.0225 46.6583 14.9097C47.5543 15.7968 48.0015 16.862 48 18.1053C48 18.9728 47.7905 19.737 47.3714 20.3978C46.9524 21.0587 46.4 21.5958 45.7143 22.0092V28.7421L32 33.2684V34.5132C32.6857 34.9281 33.2381 35.475 33.6571 36.1539C34.0762 36.8329 34.2857 37.6061 34.2857 38.4737C34.2857 39.7184 33.8385 40.7844 32.944 41.6715C32.0495 42.5587 30.973 43.0015 29.7143 43Z" fill="white"/>
</svg>
