<svg width="50" height="50" viewBox="0 0 50 50" fill="none" xmlns="http://www.w3.org/2000/svg">
<path d="M28.3334 3.33301C24.0717 3.33301 20.2867 5.33853 17.8451 8.4502C17.4567 8.3952 17.07 8.33301 16.6667 8.33301C12.45 8.33301 9.00229 11.475 8.44729 15.54C4.16895 16.9967 1.18687 21.2606 1.72854 26.1423C2.29687 31.2589 6.87643 34.9997 12.0248 34.9997H23.3334V23.333C23.3334 22.413 24.08 21.6663 25 21.6663C25.92 21.6663 26.6667 22.413 26.6667 23.333V34.9997H37.9785C43.1169 34.9997 47.6883 31.2733 48.2682 26.1683C48.8216 21.2966 45.8663 17.0379 41.6114 15.5596C41.048 8.71457 35.3234 3.33301 28.3334 3.33301ZM26.6667 34.9997H23.3334V44.3096L19.5117 40.488C19.3564 40.3283 19.1707 40.2014 18.9655 40.1147C18.7603 40.0281 18.5398 39.9834 18.3171 39.9834C17.9855 39.9835 17.6615 40.0824 17.3865 40.2676C17.1115 40.4528 16.898 40.7158 16.7732 41.023C16.6484 41.3302 16.6181 41.6676 16.6861 41.9921C16.7541 42.3166 16.9174 42.6135 17.155 42.8447L23.8216 49.5114C24.1342 49.8238 24.5581 49.9994 25 49.9994C25.442 49.9994 25.8658 49.8238 26.1784 49.5114L32.8451 42.8447C33.005 42.6912 33.1327 42.5072 33.2207 42.3037C33.3087 42.1001 33.3552 41.8811 33.3574 41.6593C33.3597 41.4376 33.3177 41.2176 33.2339 41.0123C33.15 40.807 33.0261 40.6205 32.8693 40.4637C32.7125 40.3069 32.526 40.183 32.3207 40.0992C32.1154 40.0154 31.8954 39.9733 31.6737 39.9756C31.452 39.9779 31.2329 40.0243 31.0294 40.1123C30.8258 40.2003 30.6419 40.328 30.4883 40.488L26.6667 44.3096V34.9997Z" fill="#1B4FA0"/>
</svg>
