<svg width="50" height="50" viewBox="0 0 50 50" fill="none" xmlns="http://www.w3.org/2000/svg">
<path d="M34.4141 1.99219C33.3771 1.99219 32.3685 2.53019 31.8125 3.49219C30.9845 4.92719 31.4752 6.76184 32.9102 7.58984C33.3822 7.86284 33.8992 7.99219 34.4082 7.99219C35.4452 7.99219 36.4538 7.45419 37.0098 6.49219C37.8378 5.05719 37.3452 3.22253 35.9102 2.39453C35.4382 2.12153 34.9231 1.99219 34.4141 1.99219ZM17.25 6.5C16.7859 6.5 16.3408 6.68437 16.0126 7.01256C15.6844 7.34075 15.5 7.78587 15.5 8.25C15.5 8.71413 15.6844 9.15925 16.0126 9.48744C16.3408 9.81563 16.7859 10 17.25 10C17.7141 10 18.1592 9.81563 18.4874 9.48744C18.8156 9.15925 19 8.71413 19 8.25C19 7.78587 18.8156 7.34075 18.4874 7.01256C18.1592 6.68437 17.7141 6.5 17.25 6.5ZM12 7C11.4696 7 10.9609 7.21071 10.5858 7.58579C10.2107 7.96086 10 8.46957 10 9C10 9.53043 10.2107 10.0391 10.5858 10.4142C10.9609 10.7893 11.4696 11 12 11C12.5304 11 13.0391 10.7893 13.4142 10.4142C13.7893 10.0391 14 9.53043 14 9C14 8.46957 13.7893 7.96086 13.4142 7.58579C13.0391 7.21071 12.5304 7 12 7ZM22 7C21.6022 7 21.2206 7.15804 20.9393 7.43934C20.658 7.72064 20.5 8.10218 20.5 8.5C20.5 8.89782 20.658 9.27936 20.9393 9.56066C21.2206 9.84196 21.6022 10 22 10C22.3978 10 22.7794 9.84196 23.0607 9.56066C23.342 9.27936 23.5 8.89782 23.5 8.5C23.5 8.10218 23.342 7.72064 23.0607 7.43934C22.7794 7.15804 22.3978 7 22 7ZM26 8C25.6022 8 25.2206 8.15804 24.9393 8.43934C24.658 8.72064 24.5 9.10218 24.5 9.5C24.5 9.89782 24.658 10.2794 24.9393 10.5607C25.2206 10.842 25.6022 11 26 11C26.3978 11 26.7794 10.842 27.0607 10.5607C27.342 10.2794 27.5 9.89782 27.5 9.5C27.5 9.10218 27.342 8.72064 27.0607 8.43934C26.7794 8.15804 26.3978 8 26 8ZM36.5586 9.50586C35.8956 9.50586 35.2597 9.76925 34.7908 10.2381C34.322 10.7069 34.0586 11.3428 34.0586 12.0059C34.0586 12.6689 34.322 13.3048 34.7908 13.7736C35.2597 14.2425 35.8956 14.5059 36.5586 14.5059C37.2216 14.5059 37.8575 14.2425 38.3264 13.7736C38.7952 13.3048 39.0586 12.6689 39.0586 12.0059C39.0586 11.3428 38.7952 10.7069 38.3264 10.2381C37.8575 9.76925 37.2216 9.50586 36.5586 9.50586ZM29 10C28.7348 10 28.4804 10.1054 28.2929 10.2929C28.1054 10.4804 28 10.7348 28 11C28 11.2652 28.1054 11.5196 28.2929 11.7071C28.4804 11.8946 28.7348 12 29 12C29.2652 12 29.5196 11.8946 29.7071 11.7071C29.8946 11.5196 30 11.2652 30 11C30 10.7348 29.8946 10.4804 29.7071 10.2929C29.5196 10.1054 29.2652 10 29 10ZM42.7539 10.7734C42.0909 10.7734 41.455 11.0368 40.9861 11.5057C40.5173 11.9745 40.2539 12.6104 40.2539 13.2734C40.2539 13.9365 40.5173 14.5724 40.9861 15.0412C41.455 15.51 42.0909 15.7734 42.7539 15.7734C43.4169 15.7734 44.0528 15.51 44.5217 15.0412C44.9905 14.5724 45.2539 13.9365 45.2539 13.2734C45.2539 12.6104 44.9905 11.9745 44.5217 11.5057C44.0528 11.0368 43.4169 10.7734 42.7539 10.7734ZM18 11.5C17.5359 11.5 17.0908 11.6844 16.7626 12.0126C16.4344 12.3408 16.25 12.7859 16.25 13.25C16.25 13.7141 16.4344 14.1592 16.7626 14.4874C17.0908 14.8156 17.5359 15 18 15C18.4641 15 18.9092 14.8156 19.2374 14.4874C19.5656 14.1592 19.75 13.7141 19.75 13.25C19.75 12.7859 19.5656 12.3408 19.2374 12.0126C18.9092 11.6844 18.4641 11.5 18 11.5ZM13 12C12.4696 12 11.9609 12.2107 11.5858 12.5858C11.2107 12.9609 11 13.4696 11 14C11 14.5304 11.2107 15.0391 11.5858 15.4142C11.9609 15.7893 12.4696 16 13 16C13.5304 16 14.0391 15.7893 14.4142 15.4142C14.7893 15.0391 15 14.5304 15 14C15 13.4696 14.7893 12.9609 14.4142 12.5858C14.0391 12.2107 13.5304 12 13 12ZM22.5 12C22.1022 12 21.7206 12.158 21.4393 12.4393C21.158 12.7206 21 13.1022 21 13.5C21 13.8978 21.158 14.2794 21.4393 14.5607C21.7206 14.842 22.1022 15 22.5 15C22.8978 15 23.2794 14.842 23.5607 14.5607C23.842 14.2794 24 13.8978 24 13.5C24 13.1022 23.842 12.7206 23.5607 12.4393C23.2794 12.158 22.8978 12 22.5 12ZM31 12C30.7348 12 30.4804 12.1054 30.2929 12.2929C30.1054 12.4804 30 12.7348 30 13C30 13.2652 30.1054 13.5196 30.2929 13.7071C30.4804 13.8946 30.7348 14 31 14C31.2652 14 31.5196 13.8946 31.7071 13.7071C31.8946 13.5196 32 13.2652 32 13C32 12.7348 31.8946 12.4804 31.7071 12.2929C31.5196 12.1054 31.2652 12 31 12ZM26.5 13.125C26.1353 13.125 25.7856 13.2699 25.5277 13.5277C25.2699 13.7856 25.125 14.1353 25.125 14.5C25.125 14.8647 25.2699 15.2144 25.5277 15.4723C25.7856 15.7301 26.1353 15.875 26.5 15.875C26.8647 15.875 27.2144 15.7301 27.4723 15.4723C27.7301 15.2144 27.875 14.8647 27.875 14.5C27.875 14.1353 27.7301 13.7856 27.4723 13.5277C27.2144 13.2699 26.8647 13.125 26.5 13.125ZM7.5 14C6.83696 14 6.20107 14.2634 5.73223 14.7322C5.26339 15.2011 5 15.837 5 16.5C5 17.163 5.26339 17.7989 5.73223 18.2678C6.20107 18.7366 6.83696 19 7.5 19C8.16304 19 8.79893 18.7366 9.26777 18.2678C9.73661 17.7989 10 17.163 10 16.5C10 15.837 9.73661 15.2011 9.26777 14.7322C8.79893 14.2634 8.16304 14 7.5 14ZM29.75 15.5C29.4185 15.5 29.1005 15.6317 28.8661 15.8661C28.6317 16.1005 28.5 16.4185 28.5 16.75C28.5 17.0815 28.6317 17.3995 28.8661 17.6339C29.1005 17.8683 29.4185 18 29.75 18C30.0815 18 30.3995 17.8683 30.6339 17.6339C30.8683 17.3995 31 17.0815 31 16.75C31 16.4185 30.8683 16.1005 30.6339 15.8661C30.3995 15.6317 30.0815 15.5 29.75 15.5ZM35.9727 16.0176C35.4422 16.0176 34.9335 16.2283 34.5584 16.6034C34.1834 16.9784 33.9727 17.4871 33.9727 18.0176C33.9727 18.548 34.1834 19.0567 34.5584 19.4318C34.9335 19.8069 35.4422 20.0176 35.9727 20.0176C36.5031 20.0176 37.0118 19.8069 37.3869 19.4318C37.7619 19.0567 37.9727 18.548 37.9727 18.0176C37.9727 17.4871 37.7619 16.9784 37.3869 16.6034C37.0118 16.2283 36.5031 16.0176 35.9727 16.0176ZM42.1699 17.2852C41.6395 17.2852 41.1308 17.4959 40.7557 17.8709C40.3806 18.246 40.1699 18.7547 40.1699 19.2852C40.1699 19.8156 40.3806 20.3243 40.7557 20.6994C41.1308 21.0744 41.6395 21.2852 42.1699 21.2852C42.7004 21.2852 43.2091 21.0744 43.5841 20.6994C43.9592 20.3243 44.1699 19.8156 44.1699 19.2852C44.1699 18.7547 43.9592 18.246 43.5841 17.8709C43.2091 17.4959 42.7004 17.2852 42.1699 17.2852ZM20 17.5C19.5359 17.5 19.0908 17.6844 18.7626 18.0126C18.4344 18.3408 18.25 18.7859 18.25 19.25C18.25 19.7141 18.4344 20.1592 18.7626 20.4874C19.0908 20.8156 19.5359 21 20 21C20.4641 21 20.9092 20.8156 21.2374 20.4874C21.5656 20.1592 21.75 19.7141 21.75 19.25C21.75 18.7859 21.5656 18.3408 21.2374 18.0126C20.9092 17.6844 20.4641 17.5 20 17.5ZM15 18C14.4696 18 13.9609 18.2107 13.5858 18.5858C13.2107 18.9609 13 19.4696 13 20C13 20.5304 13.2107 21.0391 13.5858 21.4142C13.9609 21.7893 14.4696 22 15 22C15.5304 22 16.0391 21.7893 16.4142 21.4142C16.7893 21.0391 17 20.5304 17 20C17 19.4696 16.7893 18.9609 16.4142 18.5858C16.0391 18.2107 15.5304 18 15 18ZM24.5 18C24.1022 18 23.7206 18.158 23.4393 18.4393C23.158 18.7206 23 19.1022 23 19.5C23 19.8978 23.158 20.2794 23.4393 20.5607C23.7206 20.842 24.1022 21 24.5 21C24.8978 21 25.2794 20.842 25.5607 20.5607C25.842 20.2794 26 19.8978 26 19.5C26 19.1022 25.842 18.7206 25.5607 18.4393C25.2794 18.158 24.8978 18 24.5 18ZM47 18.9199C46.4696 18.9199 45.9609 19.1306 45.5858 19.5057C45.2107 19.8808 45 20.3895 45 20.9199C45 21.4504 45.2107 21.9591 45.5858 22.3341C45.9609 22.7092 46.4696 22.9199 47 22.9199C47.5304 22.9199 48.0391 22.7092 48.4142 22.3341C48.7893 21.9591 49 21.4504 49 20.9199C49 20.3895 48.7893 19.8808 48.4142 19.5057C48.0391 19.1306 47.5304 18.9199 47 18.9199ZM28.5 19C28.1022 19 27.7206 19.158 27.4393 19.4393C27.158 19.7206 27 20.1022 27 20.5C27 20.8978 27.158 21.2794 27.4393 21.5607C27.7206 21.842 28.1022 22 28.5 22C28.8978 22 29.2794 21.842 29.5607 21.5607C29.842 21.2794 30 20.8978 30 20.5C30 20.1022 29.842 19.7206 29.5607 19.4393C29.2794 19.158 28.8978 19 28.5 19ZM9.5 20C8.83696 20 8.20107 20.2634 7.73223 20.7322C7.26339 21.2011 7 21.837 7 22.5C7 23.163 7.26339 23.7989 7.73223 24.2678C8.20107 24.7366 8.83696 25 9.5 25C9.8283 25 10.1534 24.9353 10.4567 24.8097C10.76 24.6841 11.0356 24.4999 11.2678 24.2678C11.4999 24.0356 11.6841 23.76 11.8097 23.4567C11.9353 23.1534 12 22.8283 12 22.5C12 22.1717 11.9353 21.8466 11.8097 21.5433C11.6841 21.24 11.4999 20.9644 11.2678 20.7322C11.0356 20.5001 10.76 20.3159 10.4567 20.1903C10.1534 20.0647 9.8283 20 9.5 20ZM34.123 20.9746C33.6589 20.9746 33.2138 21.159 32.8856 21.4872C32.5574 21.8154 32.373 22.2605 32.373 22.7246C32.373 23.1887 32.5574 23.6339 32.8856 23.962C33.2138 24.2902 33.6589 24.4746 34.123 24.4746C34.5872 24.4746 35.0323 24.2902 35.3605 23.962C35.6887 23.6339 35.873 23.1887 35.873 22.7246C35.873 22.2605 35.6887 21.8154 35.3605 21.4872C35.0323 21.159 34.5872 20.9746 34.123 20.9746ZM40.3184 22.2422C39.8542 22.2422 39.4091 22.4266 39.0809 22.7548C38.7527 23.0829 38.5684 23.5281 38.5684 23.9922C38.5684 24.4563 38.7527 24.9014 39.0809 25.2296C39.4091 25.5578 39.8542 25.7422 40.3184 25.7422C40.7825 25.7422 41.2276 25.5578 41.5558 25.2296C41.884 24.9014 42.0684 24.4563 42.0684 23.9922C42.0684 23.5281 41.884 23.0829 41.5558 22.7548C41.2276 22.4266 40.7825 22.2422 40.3184 22.2422ZM21.1191 23.8125C20.7213 23.8125 20.3398 23.9705 20.0585 24.2518C19.7772 24.5331 19.6191 24.9147 19.6191 25.3125C19.6191 25.7103 19.7772 26.0919 20.0585 26.3732C20.3398 26.6545 20.7213 26.8125 21.1191 26.8125C21.517 26.8125 21.8985 26.6545 22.1798 26.3732C22.4611 26.0919 22.6191 25.7103 22.6191 25.3125C22.6191 24.9147 22.4611 24.5331 22.1798 24.2518C21.8985 23.9705 21.517 23.8125 21.1191 23.8125ZM3 24C1.343 24 0 25.343 0 27C0 28.657 1.343 30 3 30C4.657 30 6 28.657 6 27C6 25.343 4.657 24 3 24ZM45.0234 24.0918C44.5593 24.0918 44.1142 24.2762 43.786 24.6044C43.4578 24.9325 43.2734 25.3777 43.2734 25.8418C43.2734 26.3059 43.4578 26.751 43.786 27.0792C44.1142 27.4074 44.5593 27.5918 45.0234 27.5918C45.4876 27.5918 45.9327 27.4074 46.2609 27.0792C46.5891 26.751 46.7734 26.3059 46.7734 25.8418C46.7734 25.3777 46.5891 24.9325 46.2609 24.6044C45.9327 24.2762 45.4876 24.0918 45.0234 24.0918ZM17.248 24.8555C16.9165 24.8555 16.5986 24.9872 16.3642 25.2216C16.1297 25.456 15.998 25.7739 15.998 26.1055C15.998 26.437 16.1297 26.7549 16.3642 26.9894C16.5986 27.2238 16.9165 27.3555 17.248 27.3555C17.5796 27.3555 17.8975 27.2238 18.1319 26.9894C18.3664 26.7549 18.498 26.437 18.498 26.1055C18.498 25.7739 18.3664 25.456 18.1319 25.2216C17.8975 24.9872 17.5796 24.8555 17.248 24.8555ZM31.6562 24.9961C31.2584 24.9961 30.8769 25.1541 30.5956 25.4354C30.3143 25.7167 30.1562 26.0983 30.1562 26.4961C30.1562 26.8939 30.3143 27.2754 30.5956 27.5568C30.8769 27.8381 31.2584 27.9961 31.6562 27.9961C32.0541 27.9961 32.4356 27.8381 32.7169 27.5568C32.9982 27.2754 33.1562 26.8939 33.1562 26.4961C33.1562 26.0983 32.9982 25.7167 32.7169 25.4354C32.4356 25.1541 32.0541 24.9961 31.6562 24.9961ZM13.375 25.8984C13.1098 25.8984 12.8554 26.0038 12.6679 26.1913C12.4804 26.3789 12.375 26.6332 12.375 26.8984C12.375 27.1637 12.4804 27.418 12.6679 27.6055C12.8554 27.7931 13.1098 27.8984 13.375 27.8984C13.6402 27.8984 13.8946 27.7931 14.0821 27.6055C14.2696 27.418 14.375 27.1637 14.375 26.8984C14.375 26.6332 14.2696 26.3789 14.0821 26.1913C13.8946 26.0038 13.6402 25.8984 13.375 25.8984ZM37.8535 26.2637C37.4557 26.2637 37.0742 26.4217 36.7929 26.703C36.5116 26.9843 36.3535 27.3658 36.3535 27.7637C36.3535 28.1615 36.5116 28.543 36.7929 28.8243C37.0742 29.1056 37.4557 29.2637 37.8535 29.2637C38.2513 29.2637 38.6329 29.1056 38.9142 28.8243C39.1955 28.543 39.3535 28.1615 39.3535 27.7637C39.3535 27.3658 39.1955 26.9843 38.9142 26.703C38.6329 26.4217 38.2513 26.2637 37.8535 26.2637ZM22.2539 27.7773C21.8561 27.7773 21.4746 27.9354 21.1932 28.2167C20.9119 28.498 20.7539 28.8795 20.7539 29.2773C20.7539 29.6752 20.9119 30.0567 21.1932 30.338C21.4746 30.6193 21.8561 30.7773 22.2539 30.7773C22.6517 30.7773 23.0333 30.6193 23.3146 30.338C23.5959 30.0567 23.7539 29.6752 23.7539 29.2773C23.7539 28.8795 23.5959 28.498 23.3146 28.2167C23.0333 27.9354 22.6517 27.7773 22.2539 27.7773ZM28.7891 27.9609C28.3912 27.9609 28.0097 28.119 27.7284 28.4003C27.4471 28.6816 27.2891 29.0631 27.2891 29.4609C27.2891 29.8588 27.4471 30.2403 27.7284 30.5216C28.0097 30.8029 28.3912 30.9609 28.7891 30.9609C29.1869 30.9609 29.5684 30.8029 29.8497 30.5216C30.131 30.2403 30.2891 29.8588 30.2891 29.4609C30.2891 29.0631 30.131 28.6816 29.8497 28.4003C29.5684 28.119 29.1869 27.9609 28.7891 27.9609ZM42.4336 28.3301C42.0358 28.3301 41.6542 28.4881 41.3729 28.7694C41.0916 29.0507 40.9336 29.4323 40.9336 29.8301C40.9336 30.2279 41.0916 30.6094 41.3729 30.8907C41.6542 31.172 42.0358 31.3301 42.4336 31.3301C42.8314 31.3301 43.213 31.172 43.4943 30.8907C43.7756 30.6094 43.9336 30.2279 43.9336 29.8301C43.9336 29.4323 43.7756 29.0507 43.4943 28.7694C43.213 28.4881 42.8314 28.3301 42.4336 28.3301ZM12.6426 28.6309C12.3774 28.6309 12.123 28.7362 11.9355 28.9238C11.7479 29.1113 11.6426 29.3656 11.6426 29.6309C11.6426 29.8961 11.7479 30.1504 11.9355 30.338C12.123 30.5255 12.3774 30.6309 12.6426 30.6309C12.9078 30.6309 13.1621 30.5255 13.3497 30.338C13.5372 30.1504 13.6426 29.8961 13.6426 29.6309C13.6426 29.3656 13.5372 29.1113 13.3497 28.9238C13.1621 28.7362 12.9078 28.6309 12.6426 28.6309ZM16.9238 28.6699C16.5592 28.6699 16.2094 28.8148 15.9516 29.0727C15.6937 29.3305 15.5488 29.6802 15.5488 30.0449C15.5488 30.4096 15.6937 30.7593 15.9516 31.0172C16.2094 31.2751 16.5592 31.4199 16.9238 31.4199C17.2885 31.4199 17.6382 31.2751 17.8961 31.0172C18.154 30.7593 18.2988 30.4096 18.2988 30.0449C18.2988 29.6802 18.154 29.3305 17.8961 29.0727C17.6382 28.8148 17.2885 28.6699 16.9238 28.6699ZM34.9863 29.3535C34.6217 29.3535 34.2719 29.4984 34.0141 29.7562C33.7562 30.0141 33.6113 30.3638 33.6113 30.7285C33.6113 31.0932 33.7562 31.4429 34.0141 31.7008C34.2719 31.9587 34.6217 32.1035 34.9863 32.1035C35.351 32.1035 35.7007 31.9587 35.9586 31.7008C36.2165 31.4429 36.3613 31.0932 36.3613 30.7285C36.3613 30.3638 36.2165 30.0141 35.9586 29.7562C35.7007 29.4984 35.351 29.3535 34.9863 29.3535ZM31.4121 31.168C31.0806 31.168 30.7626 31.2997 30.5282 31.5341C30.2938 31.7685 30.1621 32.0864 30.1621 32.418C30.1621 32.7495 30.2938 33.0674 30.5282 33.3019C30.7626 33.5363 31.0806 33.668 31.4121 33.668C31.7436 33.668 32.0616 33.5363 32.296 33.3019C32.5304 33.0674 32.6621 32.7495 32.6621 32.418C32.6621 32.0864 32.5304 31.7685 32.296 31.5341C32.0616 31.2997 31.7436 31.168 31.4121 31.168ZM39.5664 31.2949C39.1686 31.2949 38.787 31.453 38.5057 31.7343C38.2244 32.0156 38.0664 32.3971 38.0664 32.7949C38.0664 33.1927 38.2244 33.5743 38.5057 33.8556C38.787 34.1369 39.1686 34.2949 39.5664 34.2949C39.9642 34.2949 40.3458 34.1369 40.6271 33.8556C40.9084 33.5743 41.0664 33.1927 41.0664 32.7949C41.0664 32.3971 40.9084 32.0156 40.6271 31.7343C40.3458 31.453 39.9642 31.2949 39.5664 31.2949ZM12.8438 31.4785C12.4459 31.4785 12.0644 31.6366 11.7831 31.9179C11.5018 32.1992 11.3438 32.5807 11.3438 32.9785C11.3438 33.3763 11.5018 33.7579 11.7831 34.0392C12.0644 34.3205 12.4459 34.4785 12.8438 34.4785C13.2416 34.4785 13.6231 34.3205 13.9044 34.0392C14.1857 33.7579 14.3438 33.3763 14.3438 32.9785C14.3438 32.5807 14.1857 32.1992 13.9044 31.9179C13.6231 31.6366 13.2416 31.4785 12.8438 31.4785ZM24.2871 31.5488C23.823 31.5488 23.3779 31.7332 23.0497 32.0614C22.7215 32.3896 22.5371 32.8347 22.5371 33.2988C22.5371 33.763 22.7215 34.2081 23.0497 34.5363C23.3779 34.8645 23.823 35.0488 24.2871 35.0488C24.7512 35.0488 25.1964 34.8645 25.5245 34.5363C25.8527 34.2081 26.0371 33.763 26.0371 33.2988C26.0371 32.8347 25.8527 32.3896 25.5245 32.0614C25.1964 31.7332 24.7512 31.5488 24.2871 31.5488ZM18.0586 32.5098C17.6608 32.5098 17.2792 32.6678 16.9979 32.9491C16.7166 33.2304 16.5586 33.6119 16.5586 34.0098C16.5586 34.4076 16.7166 34.7891 16.9979 35.0704C17.2792 35.3517 17.6608 35.5098 18.0586 35.5098C18.4564 35.5098 18.8379 35.3517 19.1193 35.0704C19.4006 34.7891 19.5586 34.4076 19.5586 34.0098C19.5586 33.6119 19.4006 33.2304 19.1193 32.9491C18.8379 32.6678 18.4564 32.5098 18.0586 32.5098ZM36.7676 33.6426C36.5024 33.6426 36.248 33.7479 36.0605 33.9355C35.8729 34.123 35.7676 34.3774 35.7676 34.6426C35.7676 34.9078 35.8729 35.1621 36.0605 35.3497C36.248 35.5372 36.5024 35.6426 36.7676 35.6426C37.0328 35.6426 37.2871 35.5372 37.4747 35.3497C37.6622 35.1621 37.7676 34.9078 37.7676 34.6426C37.7676 34.3774 37.6622 34.123 37.4747 33.9355C37.2871 33.7479 37.0328 33.6426 36.7676 33.6426ZM34.0352 34.375C33.7699 34.375 33.5156 34.4804 33.328 34.6679C33.1405 34.8554 33.0352 35.1098 33.0352 35.375C33.0352 35.6402 33.1405 35.8946 33.328 36.0821C33.5156 36.2696 33.7699 36.375 34.0352 36.375C34.3004 36.375 34.5547 36.2696 34.7423 36.0821C34.9298 35.8946 35.0352 35.6402 35.0352 35.375C35.0352 35.1098 34.9298 34.8554 34.7423 34.6679C34.5547 34.4804 34.3004 34.375 34.0352 34.375ZM27.4375 35.2539C26.9071 35.2539 26.3984 35.4646 26.0233 35.8397C25.6482 36.2148 25.4375 36.7235 25.4375 37.2539C25.4375 37.7843 25.6482 38.293 26.0233 38.6681C26.3984 39.0432 26.9071 39.2539 27.4375 39.2539C27.9679 39.2539 28.4766 39.0432 28.8517 38.6681C29.2268 38.293 29.4375 37.7843 29.4375 37.2539C29.4375 36.7235 29.2268 36.2148 28.8517 35.8397C28.4766 35.4646 27.9679 35.2539 27.4375 35.2539ZM13.9785 35.4414C13.5807 35.4414 13.1992 35.5994 12.9179 35.8807C12.6366 36.162 12.4785 36.5436 12.4785 36.9414C12.4785 37.3392 12.6366 37.7208 12.9179 38.0021C13.1992 38.2834 13.5807 38.4414 13.9785 38.4414C14.3763 38.4414 14.7579 38.2834 15.0392 38.0021C15.3205 37.7208 15.4785 37.3392 15.4785 36.9414C15.4785 36.5436 15.3205 36.162 15.0392 35.8807C14.7579 35.5994 14.3763 35.4414 13.9785 35.4414ZM20.0918 36.2812C19.6277 36.2812 19.1825 36.4656 18.8544 36.7938C18.5262 37.122 18.3418 37.5671 18.3418 38.0312C18.3418 38.4954 18.5262 38.9405 18.8544 39.2687C19.1825 39.5969 19.6277 39.7812 20.0918 39.7812C20.5559 39.7812 21.001 39.5969 21.3292 39.2687C21.6574 38.9405 21.8418 38.4954 21.8418 38.0312C21.8418 37.5671 21.6574 37.122 21.3292 36.7938C21.001 36.4656 20.5559 36.2812 20.0918 36.2812ZM32.3516 38.2676C31.6885 38.2676 31.0526 38.531 30.5838 38.9998C30.115 39.4687 29.8516 40.1045 29.8516 40.7676C29.8516 41.4306 30.115 42.0665 30.5838 42.5353C31.0526 43.0042 31.6885 43.2676 32.3516 43.2676C33.0146 43.2676 33.6505 43.0042 34.1193 42.5353C34.5882 42.0665 34.8516 41.4306 34.8516 40.7676C34.8516 40.1045 34.5882 39.4687 34.1193 38.9998C33.6505 38.531 33.0146 38.2676 32.3516 38.2676ZM16.1367 39.4316C15.6726 39.4316 15.2275 39.616 14.8993 39.9442C14.5711 40.2724 14.3867 40.7175 14.3867 41.1816C14.3867 41.6458 14.5711 42.0909 14.8993 42.4191C15.2275 42.7473 15.6726 42.9316 16.1367 42.9316C16.6008 42.9316 17.046 42.7473 17.3742 42.4191C17.7023 42.0909 17.8867 41.6458 17.8867 41.1816C17.8867 40.7175 17.7023 40.2724 17.3742 39.9442C17.046 39.616 16.6008 39.4316 16.1367 39.4316ZM23.2402 39.9863C22.7098 39.9863 22.2011 40.197 21.826 40.5721C21.4509 40.9472 21.2402 41.4559 21.2402 41.9863C21.2402 42.5168 21.4509 43.0255 21.826 43.4005C22.2011 43.7756 22.7098 43.9863 23.2402 43.9863C23.7707 43.9863 24.2794 43.7756 24.6544 43.4005C25.0295 43.0255 25.2402 42.5168 25.2402 41.9863C25.2402 41.4559 25.0295 40.9472 24.6544 40.5721C24.2794 40.197 23.7707 39.9863 23.2402 39.9863ZM38.9961 40.2793C38.4871 40.2793 37.972 40.4096 37.5 40.6816C36.065 41.5096 35.5733 43.3443 36.4023 44.7793C36.9583 45.7413 37.9669 46.2793 39.0039 46.2793C39.5129 46.2793 40.028 46.1509 40.5 45.8789C41.935 45.0509 42.4267 43.2143 41.5977 41.7793C41.0417 40.8173 40.0331 40.2793 38.9961 40.2793ZM28.1562 43C27.4932 43 26.8573 43.2634 26.3885 43.7322C25.9196 44.2011 25.6562 44.837 25.6562 45.5C25.6562 45.8283 25.7209 46.1534 25.8466 46.4567C25.9722 46.76 26.1563 47.0356 26.3885 47.2678C26.6206 47.4999 26.8962 47.6841 27.1995 47.8097C27.5029 47.9353 27.8279 48 28.1562 48C28.4846 48 28.8096 47.9353 29.113 47.8097C29.4163 47.6841 29.6919 47.4999 29.924 47.2678C30.1562 47.0356 30.3403 46.76 30.4659 46.4567C30.5916 46.1534 30.6562 45.8283 30.6562 45.5C30.6562 44.837 30.3929 44.2011 29.924 43.7322C29.4552 43.2634 28.8193 43 28.1562 43ZM19.4102 43.3516C18.8797 43.3516 18.371 43.5623 17.9959 43.9373C17.6209 44.3124 17.4102 44.8211 17.4102 45.3516C17.4102 45.882 17.6209 46.3907 17.9959 46.7658C18.371 47.1408 18.8797 47.3516 19.4102 47.3516C19.9406 47.3516 20.4493 47.1408 20.8244 46.7658C21.1994 46.3907 21.4102 45.882 21.4102 45.3516C21.4102 44.8211 21.1994 44.3124 20.8244 43.9373C20.4493 43.5623 19.9406 43.3516 19.4102 43.3516Z" fill="#1B4FA0"/>
</svg>
